<?xml version="1.0" encoding="UTF-8" standalone="no"?>
<svg
   xmlns:dc="http://purl.org/dc/elements/1.1/"
   xmlns:cc="http://creativecommons.org/ns#"
   xmlns:rdf="http://www.w3.org/1999/02/22-rdf-syntax-ns#"
   xmlns:svg="http://www.w3.org/2000/svg"
   xmlns="http://www.w3.org/2000/svg"
   viewBox="0 0 374.39999 277.85834"
   height="277.85834"
   width="374.39999"
   xml:space="preserve"
   id="svg2"
   version="1.1"><metadata
     id="metadata8"><rdf:RDF><cc:Work
         rdf:about=""><dc:format>image/svg+xml</dc:format><dc:type
           rdf:resource="http://purl.org/dc/dcmitype/StillImage" /></cc:Work></rdf:RDF></metadata><defs
     id="defs6"><clipPath
       id="clipPath20"
       clipPathUnits="userSpaceOnUse"><path
         id="path18"
         d="M 46.981018,35.911353 H 273.6 V 178.66282 H 46.981018 Z" /></clipPath><clipPath
       id="clipPath38"
       clipPathUnits="userSpaceOnUse"><path
         id="path36"
         d="M 46.981018,35.911353 H 273.6 V 178.66282 H 46.981018 Z" /></clipPath><clipPath
       id="clipPath56"
       clipPathUnits="userSpaceOnUse"><path
         id="path54"
         d="M 46.981018,35.911353 H 273.6 V 178.66282 H 46.981018 Z" /></clipPath><clipPath
       id="clipPath74"
       clipPathUnits="userSpaceOnUse"><path
         id="path72"
         d="M 46.981018,35.911353 H 273.6 V 178.66282 H 46.981018 Z" /></clipPath><clipPath
       id="clipPath92"
       clipPathUnits="userSpaceOnUse"><path
         id="path90"
         d="M 46.981018,35.911353 H 273.6 V 178.66282 H 46.981018 Z" /></clipPath><clipPath
       id="clipPath110"
       clipPathUnits="userSpaceOnUse"><path
         id="path108"
         d="M 46.981018,35.911353 H 273.6 V 178.66282 H 46.981018 Z" /></clipPath><clipPath
       id="clipPath132"
       clipPathUnits="userSpaceOnUse"><path
         id="path130"
         d="M 46.981018,35.911353 H 273.6 V 178.66282 H 46.981018 Z" /></clipPath><clipPath
       id="clipPath150"
       clipPathUnits="userSpaceOnUse"><path
         id="path148"
         d="M 46.981018,35.911353 H 273.6 V 178.66282 H 46.981018 Z" /></clipPath><clipPath
       id="clipPath168"
       clipPathUnits="userSpaceOnUse"><path
         id="path166"
         d="M 46.981018,35.911353 H 273.6 V 178.66282 H 46.981018 Z" /></clipPath><clipPath
       id="clipPath186"
       clipPathUnits="userSpaceOnUse"><path
         id="path184"
         d="M 46.981018,35.911353 H 273.6 V 178.66282 H 46.981018 Z" /></clipPath><clipPath
       id="clipPath204"
       clipPathUnits="userSpaceOnUse"><path
         id="path202"
         d="M 46.981018,35.911353 H 273.6 V 178.66282 H 46.981018 Z" /></clipPath><clipPath
       id="clipPath222"
       clipPathUnits="userSpaceOnUse"><path
         id="path220"
         d="M 46.981018,35.911353 H 273.6 V 178.66282 H 46.981018 Z" /></clipPath><clipPath
       id="clipPath244"
       clipPathUnits="userSpaceOnUse"><path
         id="path242"
         d="M 46.981018,35.911353 H 273.6 V 178.66282 H 46.981018 Z" /></clipPath><clipPath
       id="clipPath254"
       clipPathUnits="userSpaceOnUse"><path
         id="path252"
         d="M 46.981018,35.911353 H 273.6 V 178.66282 H 46.981018 Z" /></clipPath></defs><g
     transform="matrix(1.3333333,0,0,-1.3333333,0,277.85833)"
     id="g10"><path
       id="path12"
       style="fill:#ffffff;fill-opacity:1;fill-rule:nonzero;stroke:none"
       d="M 46.981018,35.911353 H 273.6 V 178.66282 H 46.981018 Z" /><g
       id="g14"><g
         clip-path="url(#clipPath20)"
         id="g16"><path
           id="path22"
           style="fill:none;stroke:#b0b0b0;stroke-width:0.80000001;stroke-linecap:square;stroke-linejoin:round;stroke-miterlimit:10;stroke-dasharray:none;stroke-opacity:0.4"
           d="M 57.079903,35.911353 V 178.66282" /></g></g><g
       id="g24"><path
         id="path26"
         style="fill:#000000;fill-opacity:1;fill-rule:nonzero;stroke:#000000;stroke-width:0.80000001;stroke-linecap:butt;stroke-linejoin:round;stroke-miterlimit:10;stroke-dasharray:none;stroke-opacity:1"
         d="m 57.079903,35.911353 v -3.5" /><text
         id="text30"
         style="font-variant:normal;font-weight:normal;font-size:9.96263981px;font-family:CMR10;-inkscape-font-specification:CMR10;writing-mode:lr-tb;fill:#000000;fill-opacity:1;fill-rule:nonzero;stroke:none"
         transform="matrix(1,0,0,-1,54.589235,21.992855)"><tspan
           id="tspan28"
           y="0"
           x="0">0</tspan></text>
</g><g
       id="g32"><g
         clip-path="url(#clipPath38)"
         id="g34"><path
           id="path40"
           style="fill:none;stroke:#b0b0b0;stroke-width:0.80000001;stroke-linecap:square;stroke-linejoin:round;stroke-miterlimit:10;stroke-dasharray:none;stroke-opacity:0.4"
           d="M 97.475443,35.911353 V 178.66282" /></g></g><g
       id="g42"><path
         id="path44"
         style="fill:#000000;fill-opacity:1;fill-rule:nonzero;stroke:#000000;stroke-width:0.80000001;stroke-linecap:butt;stroke-linejoin:round;stroke-miterlimit:10;stroke-dasharray:none;stroke-opacity:1"
         d="m 97.475443,35.911353 v -3.5" /><text
         id="text48"
         style="font-variant:normal;font-weight:normal;font-size:9.96263981px;font-family:CMR10;-inkscape-font-specification:CMR10;writing-mode:lr-tb;fill:#000000;fill-opacity:1;fill-rule:nonzero;stroke:none"
         transform="matrix(1,0,0,-1,90.00344,21.992855)"><tspan
           id="tspan46"
           y="0"
           x="0 4.9813199 9.9626398">200</tspan></text>
</g><g
       id="g50"><g
         clip-path="url(#clipPath56)"
         id="g52"><path
           id="path58"
           style="fill:none;stroke:#b0b0b0;stroke-width:0.80000001;stroke-linecap:square;stroke-linejoin:round;stroke-miterlimit:10;stroke-dasharray:none;stroke-opacity:0.4"
           d="M 137.87098,35.911353 V 178.66282" /></g></g><g
       id="g60"><path
         id="path62"
         style="fill:#000000;fill-opacity:1;fill-rule:nonzero;stroke:#000000;stroke-width:0.80000001;stroke-linecap:butt;stroke-linejoin:round;stroke-miterlimit:10;stroke-dasharray:none;stroke-opacity:1"
         d="m 137.87098,35.911353 v -3.5" /><text
         id="text66"
         style="font-variant:normal;font-weight:normal;font-size:9.96263981px;font-family:CMR10;-inkscape-font-specification:CMR10;writing-mode:lr-tb;fill:#000000;fill-opacity:1;fill-rule:nonzero;stroke:none"
         transform="matrix(1,0,0,-1,130.39898,21.992855)"><tspan
           id="tspan64"
           y="0"
           x="0 4.9813199 9.9626398">400</tspan></text>
</g><g
       id="g68"><g
         clip-path="url(#clipPath74)"
         id="g70"><path
           id="path76"
           style="fill:none;stroke:#b0b0b0;stroke-width:0.80000001;stroke-linecap:square;stroke-linejoin:round;stroke-miterlimit:10;stroke-dasharray:none;stroke-opacity:0.4"
           d="M 178.26652,35.911353 V 178.66282" /></g></g><g
       id="g78"><path
         id="path80"
         style="fill:#000000;fill-opacity:1;fill-rule:nonzero;stroke:#000000;stroke-width:0.80000001;stroke-linecap:butt;stroke-linejoin:round;stroke-miterlimit:10;stroke-dasharray:none;stroke-opacity:1"
         d="m 178.26652,35.911353 v -3.5" /><text
         id="text84"
         style="font-variant:normal;font-weight:normal;font-size:9.96263981px;font-family:CMR10;-inkscape-font-specification:CMR10;writing-mode:lr-tb;fill:#000000;fill-opacity:1;fill-rule:nonzero;stroke:none"
         transform="matrix(1,0,0,-1,170.79452,21.992855)"><tspan
           id="tspan82"
           y="0"
           x="0 4.9813199 9.9626398">600</tspan></text>
</g><g
       id="g86"><g
         clip-path="url(#clipPath92)"
         id="g88"><path
           id="path94"
           style="fill:none;stroke:#b0b0b0;stroke-width:0.80000001;stroke-linecap:square;stroke-linejoin:round;stroke-miterlimit:10;stroke-dasharray:none;stroke-opacity:0.4"
           d="M 218.66206,35.911353 V 178.66282" /></g></g><g
       id="g96"><path
         id="path98"
         style="fill:#000000;fill-opacity:1;fill-rule:nonzero;stroke:#000000;stroke-width:0.80000001;stroke-linecap:butt;stroke-linejoin:round;stroke-miterlimit:10;stroke-dasharray:none;stroke-opacity:1"
         d="m 218.66206,35.911353 v -3.5" /><text
         id="text102"
         style="font-variant:normal;font-weight:normal;font-size:9.96263981px;font-family:CMR10;-inkscape-font-specification:CMR10;writing-mode:lr-tb;fill:#000000;fill-opacity:1;fill-rule:nonzero;stroke:none"
         transform="matrix(1,0,0,-1,211.19006,21.992855)"><tspan
           id="tspan100"
           y="0"
           x="0 4.9813199 9.9626398">800</tspan></text>
</g><g
       id="g104"><g
         clip-path="url(#clipPath110)"
         id="g106"><path
           id="path112"
           style="fill:none;stroke:#b0b0b0;stroke-width:0.80000001;stroke-linecap:square;stroke-linejoin:round;stroke-miterlimit:10;stroke-dasharray:none;stroke-opacity:0.4"
           d="M 259.05761,35.911353 V 178.66282" /></g></g><g
       id="g114"><path
         id="path116"
         style="fill:#000000;fill-opacity:1;fill-rule:nonzero;stroke:#000000;stroke-width:0.80000001;stroke-linecap:butt;stroke-linejoin:round;stroke-miterlimit:10;stroke-dasharray:none;stroke-opacity:1"
         d="m 259.05761,35.911353 v -3.5" /><text
         id="text120"
         style="font-variant:normal;font-weight:normal;font-size:9.96263981px;font-family:CMR10;-inkscape-font-specification:CMR10;writing-mode:lr-tb;fill:#000000;fill-opacity:1;fill-rule:nonzero;stroke:none"
         transform="matrix(1,0,0,-1,249.09493,21.992855)"><tspan
           id="tspan118"
           y="0"
           x="0 4.9813199 9.9626398 14.94396">1000</tspan></text>
<text
         id="text124"
         style="font-variant:normal;font-weight:normal;font-size:9.96263981px;font-family:CMSS10;-inkscape-font-specification:CMSS10;writing-mode:lr-tb;fill:#000000;fill-opacity:1;fill-rule:nonzero;stroke:none"
         transform="matrix(1,0,0,-1,121.78206,9.1371783)"><tspan
           id="tspan122"
           y="0"
           x="0 7.0535493 12.194271 20.104609 25.522078 29.94549 36.663628 41.644947 48.004425 52.597202 57.020615 61.444027 65.040543 69.74511 73.142372">Numberofvectors</tspan></text>
</g><g
       id="g126"><g
         clip-path="url(#clipPath132)"
         id="g128"><path
           id="path134"
           style="fill:none;stroke:#b0b0b0;stroke-width:0.80000001;stroke-linecap:square;stroke-linejoin:round;stroke-miterlimit:10;stroke-dasharray:none;stroke-opacity:0.4"
           d="M 46.981018,42.272327 H 273.6" /></g></g><g
       id="g136"><path
         id="path138"
         style="fill:#000000;fill-opacity:1;fill-rule:nonzero;stroke:#000000;stroke-width:0.80000001;stroke-linecap:butt;stroke-linejoin:round;stroke-miterlimit:10;stroke-dasharray:none;stroke-opacity:1"
         d="m 46.981018,42.272327 h -3.5" /><text
         id="text142"
         style="font-variant:normal;font-weight:normal;font-size:9.96263981px;font-family:CMR10;-inkscape-font-specification:CMR10;writing-mode:lr-tb;fill:#000000;fill-opacity:1;fill-rule:nonzero;stroke:none"
         transform="matrix(1,0,0,-1,34.999682,38.813078)"><tspan
           id="tspan140"
           y="0"
           x="0">0</tspan></text>
</g><g
       id="g144"><g
         clip-path="url(#clipPath150)"
         id="g146"><path
           id="path152"
           style="fill:none;stroke:#b0b0b0;stroke-width:0.80000001;stroke-linecap:square;stroke-linejoin:round;stroke-miterlimit:10;stroke-dasharray:none;stroke-opacity:0.4"
           d="M 46.981018,67.818241 H 273.6" /></g></g><g
       id="g154"><path
         id="path156"
         style="fill:#000000;fill-opacity:1;fill-rule:nonzero;stroke:#000000;stroke-width:0.80000001;stroke-linecap:butt;stroke-linejoin:round;stroke-miterlimit:10;stroke-dasharray:none;stroke-opacity:1"
         d="m 46.981018,67.818241 h -3.5" /><text
         id="text160"
         style="font-variant:normal;font-weight:normal;font-size:9.96263981px;font-family:CMR10;-inkscape-font-specification:CMR10;writing-mode:lr-tb;fill:#000000;fill-opacity:1;fill-rule:nonzero;stroke:none"
         transform="matrix(1,0,0,-1,25.037012,64.358992)"><tspan
           id="tspan158"
           y="0"
           x="0 4.9813199 9.9626398">200</tspan></text>
</g><g
       id="g162"><g
         clip-path="url(#clipPath168)"
         id="g164"><path
           id="path170"
           style="fill:none;stroke:#b0b0b0;stroke-width:0.80000001;stroke-linecap:square;stroke-linejoin:round;stroke-miterlimit:10;stroke-dasharray:none;stroke-opacity:0.4"
           d="M 46.981018,93.364155 H 273.6" /></g></g><g
       id="g172"><path
         id="path174"
         style="fill:#000000;fill-opacity:1;fill-rule:nonzero;stroke:#000000;stroke-width:0.80000001;stroke-linecap:butt;stroke-linejoin:round;stroke-miterlimit:10;stroke-dasharray:none;stroke-opacity:1"
         d="m 46.981018,93.364155 h -3.5" /><text
         id="text178"
         style="font-variant:normal;font-weight:normal;font-size:9.96263981px;font-family:CMR10;-inkscape-font-specification:CMR10;writing-mode:lr-tb;fill:#000000;fill-opacity:1;fill-rule:nonzero;stroke:none"
         transform="matrix(1,0,0,-1,25.037012,89.904906)"><tspan
           id="tspan176"
           y="0"
           x="0 4.9813199 9.9626398">400</tspan></text>
</g><g
       id="g180"><g
         clip-path="url(#clipPath186)"
         id="g182"><path
           id="path188"
           style="fill:none;stroke:#b0b0b0;stroke-width:0.80000001;stroke-linecap:square;stroke-linejoin:round;stroke-miterlimit:10;stroke-dasharray:none;stroke-opacity:0.4"
           d="M 46.981018,118.91007 H 273.6" /></g></g><g
       id="g190"><path
         id="path192"
         style="fill:#000000;fill-opacity:1;fill-rule:nonzero;stroke:#000000;stroke-width:0.80000001;stroke-linecap:butt;stroke-linejoin:round;stroke-miterlimit:10;stroke-dasharray:none;stroke-opacity:1"
         d="m 46.981018,118.91007 h -3.5" /><text
         id="text196"
         style="font-variant:normal;font-weight:normal;font-size:9.96263981px;font-family:CMR10;-inkscape-font-specification:CMR10;writing-mode:lr-tb;fill:#000000;fill-opacity:1;fill-rule:nonzero;stroke:none"
         transform="matrix(1,0,0,-1,25.037012,115.45082)"><tspan
           id="tspan194"
           y="0"
           x="0 4.9813199 9.9626398">600</tspan></text>
</g><g
       id="g198"><g
         clip-path="url(#clipPath204)"
         id="g200"><path
           id="path206"
           style="fill:none;stroke:#b0b0b0;stroke-width:0.80000001;stroke-linecap:square;stroke-linejoin:round;stroke-miterlimit:10;stroke-dasharray:none;stroke-opacity:0.4"
           d="M 46.981018,144.45598 H 273.6" /></g></g><g
       id="g208"><path
         id="path210"
         style="fill:#000000;fill-opacity:1;fill-rule:nonzero;stroke:#000000;stroke-width:0.80000001;stroke-linecap:butt;stroke-linejoin:round;stroke-miterlimit:10;stroke-dasharray:none;stroke-opacity:1"
         d="m 46.981018,144.45598 h -3.5" /><text
         id="text214"
         style="font-variant:normal;font-weight:normal;font-size:9.96263981px;font-family:CMR10;-inkscape-font-specification:CMR10;writing-mode:lr-tb;fill:#000000;fill-opacity:1;fill-rule:nonzero;stroke:none"
         transform="matrix(1,0,0,-1,25.037012,140.99673)"><tspan
           id="tspan212"
           y="0"
           x="0 4.9813199 9.9626398">800</tspan></text>
</g><g
       id="g216"><g
         clip-path="url(#clipPath222)"
         id="g218"><path
           id="path224"
           style="fill:none;stroke:#b0b0b0;stroke-width:0.80000001;stroke-linecap:square;stroke-linejoin:round;stroke-miterlimit:10;stroke-dasharray:none;stroke-opacity:0.4"
           d="M 46.981018,170.0019 H 273.6" /></g></g><g
       id="g226"><path
         id="path228"
         style="fill:#000000;fill-opacity:1;fill-rule:nonzero;stroke:#000000;stroke-width:0.80000001;stroke-linecap:butt;stroke-linejoin:round;stroke-miterlimit:10;stroke-dasharray:none;stroke-opacity:1"
         d="m 46.981018,170.0019 h -3.5" /><text
         id="text232"
         style="font-variant:normal;font-weight:normal;font-size:9.96263981px;font-family:CMR10;-inkscape-font-specification:CMR10;writing-mode:lr-tb;fill:#000000;fill-opacity:1;fill-rule:nonzero;stroke:none"
         transform="matrix(1,0,0,-1,20.055677,166.54265)"><tspan
           id="tspan230"
           y="0"
           x="0 4.9813199 9.9626398 14.94396">1000</tspan></text>
<text
         id="text236"
         style="font-variant:normal;font-weight:normal;font-size:9.96263981px;font-family:CMSS10;-inkscape-font-specification:CMSS10;writing-mode:lr-tb;fill:#000000;fill-opacity:1;fill-rule:nonzero;stroke:none"
         transform="matrix(0,1,1,0,14.118498,78.713627)"><tspan
           id="tspan234"
           y="0"
           x="0 5.9476962 11.755916 16.179327 20.602739 24.199253 26.570362 31.163137 38.907425 42.304688 47.086754 52.227474">Efectiverank</tspan></text>
</g><g
       id="g238"><g
         clip-path="url(#clipPath244)"
         id="g240"><path
           id="path246"
           style="fill:none;stroke:#003f5c;stroke-width:1.5;stroke-linecap:square;stroke-linejoin:round;stroke-miterlimit:10;stroke-dasharray:none;stroke-opacity:1"
           d="m 57.281881,42.400057 2.019777,1.262438 2.019777,1.244046 2.019777,1.232388 2.019777,1.230016 2.019777,1.224858 2.019777,1.215877 2.019777,1.205071 2.019777,1.211861 2.019777,1.207709 2.019777,1.19907 2.019777,1.196711 2.019777,1.192921 2.019777,1.184523 2.019777,1.188817 2.019777,1.18081 2.019777,1.174748 2.019777,1.182182 2.019777,1.181647 2.019777,1.173108 2.019777,1.175507 2.019777,1.170179 2.019782,1.168243 2.01977,1.162648 2.01978,1.156466 2.01978,1.153043 2.01977,1.157865 2.01978,1.142622 2.01978,1.145071 2.01977,1.137787 2.01978,1.14734 2.01978,1.160641 2.01978,1.129452 2.01977,1.13022 2.01978,1.130205 2.01978,1.137206 2.01977,1.128914 2.01978,1.140823 2.01978,1.122896 2.01977,1.136836 2.01978,1.123028 2.01978,1.146015 2.01978,1.139209 2.01977,1.125376 2.01978,1.120463 2.01978,1.123882 2.01977,1.119669 2.01978,1.113638 2.01978,1.116663 2.01977,1.116301 2.01978,1.120004 2.01978,1.1273 2.01978,1.10962 2.01977,1.11489 2.01978,1.11047 2.01978,1.1033 2.01977,1.10803 2.01978,1.11933 2.01978,1.09842 2.01977,1.11549 2.01978,1.11034 2.01978,1.10496 2.01978,1.09508 2.01977,1.09539 2.01978,1.09547 2.01978,1.09471 2.01977,1.09553 2.01978,1.09795 2.01978,1.11612 2.01977,1.08956 2.01978,1.10075 2.01978,1.09166 2.01978,1.09536 2.01977,1.09843 2.01978,1.09023 2.01978,1.09676 2.01977,1.09557 2.01978,1.09497 2.01978,1.09476 2.01978,1.09721 2.01977,1.08153 2.01978,1.08082 2.01978,1.07955 2.01977,1.08071 2.01978,1.09393 2.01978,1.08563 2.01977,1.08366 2.01978,1.08051 2.01978,1.08343 2.01978,1.09447 2.01977,1.09182 2.01978,1.08579 2.01978,1.07596 2.01977,1.06485 2.01978,1.08084 2.01978,1.06786 2.01977,1.06935 2.01978,1.07954 2.01978,1.06614 2.01978,1.06854 2.01977,1.07255 2.01978,1.0794 2.01978,1.07144" /></g></g><g
       id="g248"><g
         clip-path="url(#clipPath254)"
         id="g250"><path
           id="path256"
           style="fill:none;stroke:#003f5c;stroke-width:1.5;stroke-linecap:butt;stroke-linejoin:round;stroke-miterlimit:10;stroke-dasharray:5.55, 2.4;stroke-dashoffset:0;stroke-opacity:0.8"
           d="m 57.281881,42.400057 2.019777,1.277233 2.019777,1.277136 2.019777,1.277061 2.019777,1.276888 2.019777,1.276807 2.019777,1.276842 2.019777,1.276674 2.019777,1.27645 2.019777,1.276635 2.019777,1.276345 2.019777,1.276276 2.019777,1.276366 2.019777,1.275773 2.019777,1.276084 2.019777,1.275902 2.019777,1.275768 2.019777,1.275668 2.019777,1.275452 2.019777,1.275504 2.019777,1.275279 2.019777,1.275306 2.019782,1.275083 2.01977,1.275096 2.01978,1.275535 2.01978,1.274567 2.01977,1.275195 2.01978,1.274579 2.01978,1.275043 2.01977,1.273927 2.01978,1.274813 2.01978,1.273776 2.01978,1.274489 2.01977,1.273811 2.01978,1.273655 2.01978,1.274629 2.01977,1.274108 2.01978,1.273304 2.01978,1.273834 2.01977,1.273203 2.01978,1.273998 2.01978,1.273666 2.01978,1.272611 2.01977,1.272704 2.01978,1.273908 2.01978,1.272988 2.01977,1.272962 2.01978,1.273 2.01978,1.27121 2.01977,1.27292 2.01978,1.27279 2.01978,1.27165 2.01978,1.2732 2.01977,1.27157 2.01978,1.27283 2.01978,1.27141 2.01977,1.27108 2.01978,1.27153 2.01978,1.27295 2.01977,1.27155 2.01978,1.27073 2.01978,1.27198 2.01978,1.27121 2.01977,1.27138 2.01978,1.27186 2.01978,1.2703 2.01977,1.27034 2.01978,1.27026 2.01978,1.27217 2.01977,1.27075 2.01978,1.26917 2.01978,1.27097 2.01978,1.26962 2.01977,1.27027 2.01978,1.27083 2.01978,1.26764 2.01977,1.27183 2.01978,1.26922 2.01978,1.27017 2.01978,1.26952 2.01977,1.27029 2.01978,1.26909 2.01978,1.26917 2.01977,1.26907 2.01978,1.26855 2.01978,1.27074 2.01977,1.26779 2.01978,1.26776 2.01978,1.26975 2.01978,1.26887 2.01977,1.26737 2.01978,1.26838 2.01978,1.26921 2.01977,1.26643 2.01978,1.26807 2.01978,1.26939 2.01977,1.26776 2.01978,1.26788 2.01978,1.26693 2.01978,1.26933 2.01977,1.26548 2.01978,1.26824 2.01978,1.26767" /></g></g><g
       id="g258"><path
         id="path260"
         style="fill:none;stroke:#000000;stroke-width:0.80000001;stroke-linecap:square;stroke-linejoin:miter;stroke-miterlimit:10;stroke-dasharray:none;stroke-opacity:1"
         d="M 46.981018,35.911353 V 178.66282" /><path
         id="path262"
         style="fill:none;stroke:#000000;stroke-width:0.80000001;stroke-linecap:square;stroke-linejoin:miter;stroke-miterlimit:10;stroke-dasharray:none;stroke-opacity:1"
         d="M 46.981018,35.911353 H 273.6" /><path
         id="path264"
         style="fill:none;stroke:#003f5c;stroke-width:1.5;stroke-linecap:square;stroke-linejoin:round;stroke-miterlimit:10;stroke-dasharray:none;stroke-opacity:1"
         d="m 169.29051,193.1 h 20" /><text
         id="text268"
         style="font-variant:normal;font-weight:normal;font-size:9.96263981px;font-family:CMSS10;-inkscape-font-specification:CMSS10;writing-mode:lr-tb;fill:#000000;fill-opacity:1;fill-rule:nonzero;stroke:none"
         transform="matrix(1,0,0,-1,197.29051,189.6)"><tspan
           id="tspan266"
           y="0"
           x="0 9.127984 13.551396 15.922504 20.903824 26.044546 32.961933 38.102657 40.473766 46.281986 50.705399 54.102657 58.52607 63.66679 68.090202 72.513618">Weightdiferences</tspan></text>
<path
         id="path270"
         style="fill:none;stroke:#003f5c;stroke-width:1.5;stroke-linecap:butt;stroke-linejoin:round;stroke-miterlimit:10;stroke-dasharray:5.55, 2.4;stroke-dashoffset:0;stroke-opacity:0.8"
         d="m 52.057511,193.1 h 20" /><text
         id="text274"
         style="font-variant:normal;font-weight:normal;font-size:9.96263981px;font-family:CMSS10;-inkscape-font-specification:CMSS10;writing-mode:lr-tb;fill:#000000;fill-opacity:1;fill-rule:nonzero;stroke:none"
         transform="matrix(1,0,0,-1,80.057511,189.6)"><tspan
           id="tspan272"
           y="0"
           x="0 6.6351185 11.417186 16.557907 20.373598 24.189291 26.560398 31.342466 39.804062 43.201324 47.983391 53.124111 58.264835 63.246155">Gaussianrandom</tspan></text>
</g></g></svg>