<?xml version="1.0" encoding="UTF-8" standalone="no"?>
<svg
   xmlns:dc="http://purl.org/dc/elements/1.1/"
   xmlns:cc="http://creativecommons.org/ns#"
   xmlns:rdf="http://www.w3.org/1999/02/22-rdf-syntax-ns#"
   xmlns:svg="http://www.w3.org/2000/svg"
   xmlns="http://www.w3.org/2000/svg"
   viewBox="0 0 662.40002 391.96124"
   height="391.96124"
   width="662.40002"
   xml:space="preserve"
   id="svg2"
   version="1.1"><metadata
     id="metadata8"><rdf:RDF><cc:Work
         rdf:about=""><dc:format>image/svg+xml</dc:format><dc:type
           rdf:resource="http://purl.org/dc/dcmitype/StillImage" /></cc:Work></rdf:RDF></metadata><defs
     id="defs6"><clipPath
       id="clipPath20"
       clipPathUnits="userSpaceOnUse"><path
         id="path18"
         d="M 47.21625,35.911353 H 489.6 V 248.49782 H 47.21625 Z" /></clipPath><clipPath
       id="clipPath30"
       clipPathUnits="userSpaceOnUse"><path
         id="path28"
         d="M 47.21625,35.911353 H 489.6 V 248.49782 H 47.21625 Z" /></clipPath><clipPath
       id="clipPath40"
       clipPathUnits="userSpaceOnUse"><path
         id="path38"
         d="M 47.21625,35.911353 H 489.6 V 248.49782 H 47.21625 Z" /></clipPath><clipPath
       id="clipPath50"
       clipPathUnits="userSpaceOnUse"><path
         id="path48"
         d="M 47.21625,35.911353 H 489.6 V 248.49782 H 47.21625 Z" /></clipPath><clipPath
       id="clipPath68"
       clipPathUnits="userSpaceOnUse"><path
         id="path66"
         d="M 47.21625,35.911353 H 489.6 V 248.49782 H 47.21625 Z" /></clipPath><clipPath
       id="clipPath86"
       clipPathUnits="userSpaceOnUse"><path
         id="path84"
         d="M 47.21625,35.911353 H 489.6 V 248.49782 H 47.21625 Z" /></clipPath><clipPath
       id="clipPath104"
       clipPathUnits="userSpaceOnUse"><path
         id="path102"
         d="M 47.21625,35.911353 H 489.6 V 248.49782 H 47.21625 Z" /></clipPath><clipPath
       id="clipPath122"
       clipPathUnits="userSpaceOnUse"><path
         id="path120"
         d="M 47.21625,35.911353 H 489.6 V 248.49782 H 47.21625 Z" /></clipPath><clipPath
       id="clipPath140"
       clipPathUnits="userSpaceOnUse"><path
         id="path138"
         d="M 47.21625,35.911353 H 489.6 V 248.49782 H 47.21625 Z" /></clipPath><clipPath
       id="clipPath162"
       clipPathUnits="userSpaceOnUse"><path
         id="path160"
         d="M 47.21625,35.911353 H 489.6 V 248.49782 H 47.21625 Z" /></clipPath><clipPath
       id="clipPath188"
       clipPathUnits="userSpaceOnUse"><path
         id="path186"
         d="M 47.21625,35.911353 H 489.6 V 248.49782 H 47.21625 Z" /></clipPath><clipPath
       id="clipPath238"
       clipPathUnits="userSpaceOnUse"><path
         id="path236"
         d="M 47.21625,35.911353 H 489.6 V 248.49782 H 47.21625 Z" /></clipPath><clipPath
       id="clipPath248"
       clipPathUnits="userSpaceOnUse"><path
         id="path246"
         d="M 47.21625,35.911353 H 489.6 V 248.49782 H 47.21625 Z" /></clipPath><clipPath
       id="clipPath260"
       clipPathUnits="userSpaceOnUse"><path
         id="path258"
         d="M -8,-8 H 8 V 8 H -8 Z" /></clipPath><clipPath
       id="clipPath272"
       clipPathUnits="userSpaceOnUse"><path
         id="path270"
         d="M -8,-8 H 8 V 8 H -8 Z" /></clipPath><clipPath
       id="clipPath284"
       clipPathUnits="userSpaceOnUse"><path
         id="path282"
         d="M -8,-8 H 8 V 8 H -8 Z" /></clipPath><clipPath
       id="clipPath296"
       clipPathUnits="userSpaceOnUse"><path
         id="path294"
         d="M -8,-8 H 8 V 8 H -8 Z" /></clipPath><clipPath
       id="clipPath308"
       clipPathUnits="userSpaceOnUse"><path
         id="path306"
         d="M -8,-8 H 8 V 8 H -8 Z" /></clipPath><clipPath
       id="clipPath320"
       clipPathUnits="userSpaceOnUse"><path
         id="path318"
         d="M -8,-8 H 8 V 8 H -8 Z" /></clipPath><clipPath
       id="clipPath330"
       clipPathUnits="userSpaceOnUse"><path
         id="path328"
         d="M 47.21625,35.911353 H 489.6 V 248.49782 H 47.21625 Z" /></clipPath><clipPath
       id="clipPath342"
       clipPathUnits="userSpaceOnUse"><path
         id="path340"
         d="M -8,-8 H 8 V 8 H -8 Z" /></clipPath><clipPath
       id="clipPath354"
       clipPathUnits="userSpaceOnUse"><path
         id="path352"
         d="M -8,-8 H 8 V 8 H -8 Z" /></clipPath><clipPath
       id="clipPath366"
       clipPathUnits="userSpaceOnUse"><path
         id="path364"
         d="M -8,-8 H 8 V 8 H -8 Z" /></clipPath><clipPath
       id="clipPath378"
       clipPathUnits="userSpaceOnUse"><path
         id="path376"
         d="M -8,-8 H 8 V 8 H -8 Z" /></clipPath><clipPath
       id="clipPath390"
       clipPathUnits="userSpaceOnUse"><path
         id="path388"
         d="M -8,-8 H 8 V 8 H -8 Z" /></clipPath><clipPath
       id="clipPath402"
       clipPathUnits="userSpaceOnUse"><path
         id="path400"
         d="M -8,-8 H 8 V 8 H -8 Z" /></clipPath></defs><g
     transform="matrix(1.3333333,0,0,-1.3333333,0,391.96124)"
     id="g10"><path
       id="path12"
       style="fill:#ffffff;fill-opacity:1;fill-rule:nonzero;stroke:none"
       d="M 47.21625,35.911353 H 489.6 V 248.49782 H 47.21625 Z" /><g
       id="g14"><g
         clip-path="url(#clipPath20)"
         id="g16"><path
           id="path22"
           style="fill:#808080;fill-opacity:0.3;fill-rule:nonzero;stroke:#808080;stroke-width:1;stroke-linecap:butt;stroke-linejoin:round;stroke-miterlimit:10;stroke-dasharray:none;stroke-opacity:0.3"
           d="m 67.324602,238.8348 v -61.29916 h 44.685228 44.68523 89.37045 89.37046 134.05568 v 61.29916 0 H 335.43597 246.06551 156.69506 112.00983 Z" /></g></g><g
       id="g24"><g
         clip-path="url(#clipPath30)"
         id="g26"><path
           id="path32"
           style="fill:#ffa600;fill-opacity:0.3;fill-rule:nonzero;stroke:#ffa600;stroke-width:1;stroke-linecap:butt;stroke-linejoin:round;stroke-miterlimit:10;stroke-dasharray:none;stroke-opacity:0.3"
           d="m 67.324602,237.89464 v -58.63939 l 44.685228,-10.01738 44.68523,-50.56569 89.37045,-49.873199 89.37046,-10.4351 134.05568,-7.246086 v 70.294705 0 l -134.05568,16.4848 -89.37046,26.71558 -89.37045,45.66772 -44.68523,19.55148 z" /></g></g><g
       id="g34"><g
         clip-path="url(#clipPath40)"
         id="g36"><path
           id="path42"
           style="fill:#003f5c;fill-opacity:0.3;fill-rule:nonzero;stroke:#003f5c;stroke-width:1;stroke-linecap:butt;stroke-linejoin:round;stroke-miterlimit:10;stroke-dasharray:none;stroke-opacity:0.3"
           d="M 67.324602,218.90797 V 138.5769 l 44.685228,-51.802663 44.68523,-26.307446 89.37045,-10.074125 89.37046,-2.69298 134.05568,-2.125311 v 48.323886 0 l -134.05568,7.907709 -89.37046,2.37176 -89.37045,43.42803 -44.68523,28.33662 z" /></g></g><g
       id="g44"><g
         clip-path="url(#clipPath50)"
         id="g46"><path
           id="path52"
           style="fill:none;stroke:#b0b0b0;stroke-width:0.80000001;stroke-linecap:square;stroke-linejoin:round;stroke-miterlimit:10;stroke-dasharray:none;stroke-opacity:0.6"
           d="M 67.324602,35.911353 V 248.49782" /></g></g><g
       id="g54"><path
         id="path56"
         style="fill:#000000;fill-opacity:1;fill-rule:nonzero;stroke:#000000;stroke-width:0.80000001;stroke-linecap:butt;stroke-linejoin:round;stroke-miterlimit:10;stroke-dasharray:none;stroke-opacity:1"
         d="m 67.324602,35.911353 v -3.5" /><text
         id="text60"
         style="font-variant:normal;font-weight:normal;font-size:9.96263981px;font-family:CMR10;-inkscape-font-specification:CMR10;writing-mode:lr-tb;fill:#000000;fill-opacity:1;fill-rule:nonzero;stroke:none"
         transform="matrix(1,0,0,-1,62.343267,21.992855)"><tspan
           id="tspan58"
           y="0"
           x="0 4.9813199">10</tspan></text>
</g><g
       id="g62"><g
         clip-path="url(#clipPath68)"
         id="g64"><path
           id="path70"
           style="fill:none;stroke:#b0b0b0;stroke-width:0.80000001;stroke-linecap:square;stroke-linejoin:round;stroke-miterlimit:10;stroke-dasharray:none;stroke-opacity:0.6"
           d="M 112.00983,35.911353 V 248.49782" /></g></g><g
       id="g72"><path
         id="path74"
         style="fill:#000000;fill-opacity:1;fill-rule:nonzero;stroke:#000000;stroke-width:0.80000001;stroke-linecap:butt;stroke-linejoin:round;stroke-miterlimit:10;stroke-dasharray:none;stroke-opacity:1"
         d="m 112.00983,35.911353 v -3.5" /><text
         id="text78"
         style="font-variant:normal;font-weight:normal;font-size:9.96263981px;font-family:CMR10;-inkscape-font-specification:CMR10;writing-mode:lr-tb;fill:#000000;fill-opacity:1;fill-rule:nonzero;stroke:none"
         transform="matrix(1,0,0,-1,107.02849,21.992855)"><tspan
           id="tspan76"
           y="0"
           x="0 4.9813199">20</tspan></text>
</g><g
       id="g80"><g
         clip-path="url(#clipPath86)"
         id="g82"><path
           id="path88"
           style="fill:none;stroke:#b0b0b0;stroke-width:0.80000001;stroke-linecap:square;stroke-linejoin:round;stroke-miterlimit:10;stroke-dasharray:none;stroke-opacity:0.6"
           d="M 156.69506,35.911353 V 248.49782" /></g></g><g
       id="g90"><path
         id="path92"
         style="fill:#000000;fill-opacity:1;fill-rule:nonzero;stroke:#000000;stroke-width:0.80000001;stroke-linecap:butt;stroke-linejoin:round;stroke-miterlimit:10;stroke-dasharray:none;stroke-opacity:1"
         d="m 156.69506,35.911353 v -3.5" /><text
         id="text96"
         style="font-variant:normal;font-weight:normal;font-size:9.96263981px;font-family:CMR10;-inkscape-font-specification:CMR10;writing-mode:lr-tb;fill:#000000;fill-opacity:1;fill-rule:nonzero;stroke:none"
         transform="matrix(1,0,0,-1,151.71372,21.992855)"><tspan
           id="tspan94"
           y="0"
           x="0 4.9813199">30</tspan></text>
</g><g
       id="g98"><g
         clip-path="url(#clipPath104)"
         id="g100"><path
           id="path106"
           style="fill:none;stroke:#b0b0b0;stroke-width:0.80000001;stroke-linecap:square;stroke-linejoin:round;stroke-miterlimit:10;stroke-dasharray:none;stroke-opacity:0.6"
           d="M 246.06551,35.911353 V 248.49782" /></g></g><g
       id="g108"><path
         id="path110"
         style="fill:#000000;fill-opacity:1;fill-rule:nonzero;stroke:#000000;stroke-width:0.80000001;stroke-linecap:butt;stroke-linejoin:round;stroke-miterlimit:10;stroke-dasharray:none;stroke-opacity:1"
         d="m 246.06551,35.911353 v -3.5" /><text
         id="text114"
         style="font-variant:normal;font-weight:normal;font-size:9.96263981px;font-family:CMR10;-inkscape-font-specification:CMR10;writing-mode:lr-tb;fill:#000000;fill-opacity:1;fill-rule:nonzero;stroke:none"
         transform="matrix(1,0,0,-1,241.08418,21.992855)"><tspan
           id="tspan112"
           y="0"
           x="0 4.9813199">50</tspan></text>
</g><g
       id="g116"><g
         clip-path="url(#clipPath122)"
         id="g118"><path
           id="path124"
           style="fill:none;stroke:#b0b0b0;stroke-width:0.80000001;stroke-linecap:square;stroke-linejoin:round;stroke-miterlimit:10;stroke-dasharray:none;stroke-opacity:0.6"
           d="M 335.43597,35.911353 V 248.49782" /></g></g><g
       id="g126"><path
         id="path128"
         style="fill:#000000;fill-opacity:1;fill-rule:nonzero;stroke:#000000;stroke-width:0.80000001;stroke-linecap:butt;stroke-linejoin:round;stroke-miterlimit:10;stroke-dasharray:none;stroke-opacity:1"
         d="m 335.43597,35.911353 v -3.5" /><text
         id="text132"
         style="font-variant:normal;font-weight:normal;font-size:9.96263981px;font-family:CMR10;-inkscape-font-specification:CMR10;writing-mode:lr-tb;fill:#000000;fill-opacity:1;fill-rule:nonzero;stroke:none"
         transform="matrix(1,0,0,-1,330.45463,21.992855)"><tspan
           id="tspan130"
           y="0"
           x="0 4.9813199">70</tspan></text>
</g><g
       id="g134"><g
         clip-path="url(#clipPath140)"
         id="g136"><path
           id="path142"
           style="fill:none;stroke:#b0b0b0;stroke-width:0.80000001;stroke-linecap:square;stroke-linejoin:round;stroke-miterlimit:10;stroke-dasharray:none;stroke-opacity:0.6"
           d="M 469.49165,35.911353 V 248.49782" /></g></g><g
       id="g144"><path
         id="path146"
         style="fill:#000000;fill-opacity:1;fill-rule:nonzero;stroke:#000000;stroke-width:0.80000001;stroke-linecap:butt;stroke-linejoin:round;stroke-miterlimit:10;stroke-dasharray:none;stroke-opacity:1"
         d="m 469.49165,35.911353 v -3.5" /><text
         id="text150"
         style="font-variant:normal;font-weight:normal;font-size:9.96263981px;font-family:CMR10;-inkscape-font-specification:CMR10;writing-mode:lr-tb;fill:#000000;fill-opacity:1;fill-rule:nonzero;stroke:none"
         transform="matrix(1,0,0,-1,462.01964,21.992855)"><tspan
           id="tspan148"
           y="0"
           x="0 4.9813199 9.9626398">100</tspan></text>
<text
         id="text154"
         style="font-variant:normal;font-weight:normal;font-size:9.96263981px;font-family:CMSS10;-inkscape-font-specification:CMSS10;writing-mode:lr-tb;fill:#000000;fill-opacity:1;fill-rule:nonzero;stroke:none"
         transform="matrix(1,0,0,-1,242.78889,9.1371783)"><tspan
           id="tspan152"
           y="0"
           x="0 5.5292654 10.669988 15.81071 21.22818 25.932753 29.330013 36.247402 40.063091 42.4342 46.757984">Supportsize</tspan></text>
</g><g
       id="g156"><g
         clip-path="url(#clipPath162)"
         id="g158"><path
           id="path164"
           style="fill:none;stroke:#b0b0b0;stroke-width:0.80000001;stroke-linecap:square;stroke-linejoin:round;stroke-miterlimit:10;stroke-dasharray:none;stroke-opacity:0.6"
           d="M 47.21625,40.380926 H 489.6" /></g></g><g
       id="g166"><path
         id="path168"
         style="fill:#000000;fill-opacity:1;fill-rule:nonzero;stroke:#000000;stroke-width:0.80000001;stroke-linecap:butt;stroke-linejoin:round;stroke-miterlimit:10;stroke-dasharray:none;stroke-opacity:1"
         d="m 47.21625,40.380926 h -3.5" /><text
         id="text172"
         style="font-variant:normal;font-weight:normal;font-size:9.96263981px;font-family:CMR10;-inkscape-font-specification:CMR10;writing-mode:lr-tb;fill:#000000;fill-opacity:1;fill-rule:nonzero;stroke:none"
         transform="matrix(1,0,0,-1,20.055677,36.921676)"><tspan
           id="tspan170"
           y="0"
           x="0 4.9813199">10</tspan></text>
<text
         id="text176"
         style="font-style:italic;font-variant:normal;font-weight:normal;font-size:6.97384787px;font-family:CMSY7;-inkscape-font-specification:CMSY7;writing-mode:lr-tb;fill:#000000;fill-opacity:1;fill-rule:nonzero;stroke:none"
         transform="matrix(1,0,0,-1,30.018347,40.53704)"><tspan
           id="tspan174"
           y="0"
           x="0">−</tspan></text>
<text
         id="text180"
         style="font-variant:normal;font-weight:normal;font-size:6.97384787px;font-family:CMR7;-inkscape-font-specification:CMR7;writing-mode:lr-tb;fill:#000000;fill-opacity:1;fill-rule:nonzero;stroke:none"
         transform="matrix(1,0,0,-1,36.245012,40.53704)"><tspan
           id="tspan178"
           y="0"
           x="0">2</tspan></text>
</g><g
       id="g182"><g
         clip-path="url(#clipPath188)"
         id="g184"><path
           id="path190"
           style="fill:none;stroke:#b0b0b0;stroke-width:0.80000001;stroke-linecap:square;stroke-linejoin:round;stroke-miterlimit:10;stroke-dasharray:none;stroke-opacity:0.6"
           d="M 47.21625,171.51106 H 489.6" /></g></g><g
       id="g192"><path
         id="path194"
         style="fill:#000000;fill-opacity:1;fill-rule:nonzero;stroke:#000000;stroke-width:0.80000001;stroke-linecap:butt;stroke-linejoin:round;stroke-miterlimit:10;stroke-dasharray:none;stroke-opacity:1"
         d="m 47.21625,171.51106 h -3.5" /><text
         id="text198"
         style="font-variant:normal;font-weight:normal;font-size:9.96263981px;font-family:CMR10;-inkscape-font-specification:CMR10;writing-mode:lr-tb;fill:#000000;fill-opacity:1;fill-rule:nonzero;stroke:none"
         transform="matrix(1,0,0,-1,20.055677,168.05181)"><tspan
           id="tspan196"
           y="0"
           x="0 4.9813199">10</tspan></text>
<text
         id="text202"
         style="font-style:italic;font-variant:normal;font-weight:normal;font-size:6.97384787px;font-family:CMSY7;-inkscape-font-specification:CMSY7;writing-mode:lr-tb;fill:#000000;fill-opacity:1;fill-rule:nonzero;stroke:none"
         transform="matrix(1,0,0,-1,30.018347,171.66718)"><tspan
           id="tspan200"
           y="0"
           x="0">−</tspan></text>
<text
         id="text206"
         style="font-variant:normal;font-weight:normal;font-size:6.97384787px;font-family:CMR7;-inkscape-font-specification:CMR7;writing-mode:lr-tb;fill:#000000;fill-opacity:1;fill-rule:nonzero;stroke:none"
         transform="matrix(1,0,0,-1,36.245012,171.66718)"><tspan
           id="tspan204"
           y="0"
           x="0">1</tspan></text>
<path
         id="path208"
         style="fill:#000000;fill-opacity:1;fill-rule:nonzero;stroke:#000000;stroke-width:0.60000002;stroke-linecap:butt;stroke-linejoin:round;stroke-miterlimit:10;stroke-dasharray:none;stroke-opacity:1"
         d="m 47.21625,79.85503 h -2" /><path
         id="path210"
         style="fill:#000000;fill-opacity:1;fill-rule:nonzero;stroke:#000000;stroke-width:0.60000002;stroke-linecap:butt;stroke-linejoin:round;stroke-miterlimit:10;stroke-dasharray:none;stroke-opacity:1"
         d="m 47.21625,102.9459 h -2" /><path
         id="path212"
         style="fill:#000000;fill-opacity:1;fill-rule:nonzero;stroke:#000000;stroke-width:0.60000002;stroke-linecap:butt;stroke-linejoin:round;stroke-miterlimit:10;stroke-dasharray:none;stroke-opacity:1"
         d="m 47.21625,119.32913 h -2" /><path
         id="path214"
         style="fill:#000000;fill-opacity:1;fill-rule:nonzero;stroke:#000000;stroke-width:0.60000002;stroke-linecap:butt;stroke-linejoin:round;stroke-miterlimit:10;stroke-dasharray:none;stroke-opacity:1"
         d="m 47.21625,132.03696 h -2" /><path
         id="path216"
         style="fill:#000000;fill-opacity:1;fill-rule:nonzero;stroke:#000000;stroke-width:0.60000002;stroke-linecap:butt;stroke-linejoin:round;stroke-miterlimit:10;stroke-dasharray:none;stroke-opacity:1"
         d="m 47.21625,142.42 h -2" /><path
         id="path218"
         style="fill:#000000;fill-opacity:1;fill-rule:nonzero;stroke:#000000;stroke-width:0.60000002;stroke-linecap:butt;stroke-linejoin:round;stroke-miterlimit:10;stroke-dasharray:none;stroke-opacity:1"
         d="m 47.21625,151.19875 h -2" /><path
         id="path220"
         style="fill:#000000;fill-opacity:1;fill-rule:nonzero;stroke:#000000;stroke-width:0.60000002;stroke-linecap:butt;stroke-linejoin:round;stroke-miterlimit:10;stroke-dasharray:none;stroke-opacity:1"
         d="m 47.21625,158.80324 h -2" /><path
         id="path222"
         style="fill:#000000;fill-opacity:1;fill-rule:nonzero;stroke:#000000;stroke-width:0.60000002;stroke-linecap:butt;stroke-linejoin:round;stroke-miterlimit:10;stroke-dasharray:none;stroke-opacity:1"
         d="m 47.21625,165.51088 h -2" /><path
         id="path224"
         style="fill:#000000;fill-opacity:1;fill-rule:nonzero;stroke:#000000;stroke-width:0.60000002;stroke-linecap:butt;stroke-linejoin:round;stroke-miterlimit:10;stroke-dasharray:none;stroke-opacity:1"
         d="m 47.21625,210.98517 h -2" /><path
         id="path226"
         style="fill:#000000;fill-opacity:1;fill-rule:nonzero;stroke:#000000;stroke-width:0.60000002;stroke-linecap:butt;stroke-linejoin:round;stroke-miterlimit:10;stroke-dasharray:none;stroke-opacity:1"
         d="m 47.21625,234.07604 h -2" /><text
         id="text230"
         style="font-variant:normal;font-weight:normal;font-size:9.96263981px;font-family:CMSS10;-inkscape-font-specification:CMSS10;writing-mode:lr-tb;fill:#000000;fill-opacity:1;fill-rule:nonzero;stroke:none"
         transform="matrix(0,1,1,0,14.118498,115.13935)"><tspan
           id="tspan228"
           y="0"
           x="0 8.71731 13.140722 18.281445 20.652554 25.43462 33.896217 42.613529 48.142792">MedianMSE</tspan></text>
</g><g
       id="g232"><g
         clip-path="url(#clipPath238)"
         id="g234"><path
           id="path240"
           style="fill:none;stroke:#808080;stroke-width:1.5;stroke-linecap:butt;stroke-linejoin:round;stroke-miterlimit:10;stroke-dasharray:1.5, 2.475;stroke-dashoffset:0;stroke-opacity:1"
           d="m 67.324602,214.66494 h 44.685228 44.68523 89.37045 89.37046 134.05568" /></g></g><g
       id="g242"><g
         clip-path="url(#clipPath248)"
         id="g244"><path
           id="path250"
           style="fill:none;stroke:#ffa600;stroke-width:1.5;stroke-linecap:butt;stroke-linejoin:round;stroke-miterlimit:10;stroke-dasharray:5.55, 2.4;stroke-dashoffset:0;stroke-opacity:1"
           d="m 67.324602,214.63991 44.685228,-12.04943 44.68523,-31.0795 89.37045,-63.82234 89.37046,-20.873777 134.05568,-11.296487" /><g
           transform="translate(67.324602,214.63992)"
           id="g252"><g
             id="g254"><g
               clip-path="url(#clipPath260)"
               id="g256"><path
                 id="path262"
                 style="fill:#ffa600;fill-opacity:1;fill-rule:nonzero;stroke:#ffa600;stroke-width:1;stroke-linecap:butt;stroke-linejoin:round;stroke-miterlimit:10;stroke-dasharray:none;stroke-opacity:1"
                 d="m 0,-3 c 0.795609,0 1.55874,0.316099 2.12132,0.87868 C 2.683901,-1.55874 3,-0.795609 3,0 3,0.795609 2.683901,1.55874 2.12132,2.12132 1.55874,2.683901 0.795609,3 0,3 -0.795609,3 -1.55874,2.683901 -2.12132,2.12132 -2.683901,1.55874 -3,0.795609 -3,0 -3,-0.795609 -2.683901,-1.55874 -2.12132,-2.12132 -1.55874,-2.683901 -0.795609,-3 0,-3 Z" /></g></g><g
             transform="translate(44.685227,-12.04943)"
             id="g264"><g
               id="g266"><g
                 clip-path="url(#clipPath272)"
                 id="g268"><path
                   id="path274"
                   style="fill:#ffa600;fill-opacity:1;fill-rule:nonzero;stroke:#ffa600;stroke-width:1;stroke-linecap:butt;stroke-linejoin:round;stroke-miterlimit:10;stroke-dasharray:none;stroke-opacity:1"
                   d="m 0,-3 c 0.795609,0 1.55874,0.316099 2.12132,0.87868 C 2.683901,-1.55874 3,-0.795609 3,0 3,0.795609 2.683901,1.55874 2.12132,2.12132 1.55874,2.683901 0.795609,3 0,3 -0.795609,3 -1.55874,2.683901 -2.12132,2.12132 -2.683901,1.55874 -3,0.795609 -3,0 -3,-0.795609 -2.683901,-1.55874 -2.12132,-2.12132 -1.55874,-2.683901 -0.795609,-3 0,-3 Z" /></g></g><g
               transform="translate(44.685227,-31.079509)"
               id="g276"><g
                 id="g278"><g
                   clip-path="url(#clipPath284)"
                   id="g280"><path
                     id="path286"
                     style="fill:#ffa600;fill-opacity:1;fill-rule:nonzero;stroke:#ffa600;stroke-width:1;stroke-linecap:butt;stroke-linejoin:round;stroke-miterlimit:10;stroke-dasharray:none;stroke-opacity:1"
                     d="m 0,-3 c 0.795609,0 1.55874,0.316099 2.12132,0.87868 C 2.683901,-1.55874 3,-0.795609 3,0 3,0.795609 2.683901,1.55874 2.12132,2.12132 1.55874,2.683901 0.795609,3 0,3 -0.795609,3 -1.55874,2.683901 -2.12132,2.12132 -2.683901,1.55874 -3,0.795609 -3,0 -3,-0.795609 -2.683901,-1.55874 -2.12132,-2.12132 -1.55874,-2.683901 -0.795609,-3 0,-3 Z" /></g></g><g
                 transform="translate(89.370455,-63.822333)"
                 id="g288"><g
                   id="g290"><g
                     clip-path="url(#clipPath296)"
                     id="g292"><path
                       id="path298"
                       style="fill:#ffa600;fill-opacity:1;fill-rule:nonzero;stroke:#ffa600;stroke-width:1;stroke-linecap:butt;stroke-linejoin:round;stroke-miterlimit:10;stroke-dasharray:none;stroke-opacity:1"
                       d="m 0,-3 c 0.795609,0 1.55874,0.316099 2.12132,0.87868 C 2.683901,-1.55874 3,-0.795609 3,0 3,0.795609 2.683901,1.55874 2.12132,2.12132 1.55874,2.683901 0.795609,3 0,3 -0.795609,3 -1.55874,2.683901 -2.12132,2.12132 -2.683901,1.55874 -3,0.795609 -3,0 -3,-0.795609 -2.683901,-1.55874 -2.12132,-2.12132 -1.55874,-2.683901 -0.795609,-3 0,-3 Z" /></g></g><g
                   transform="translate(89.370455,-20.873779)"
                   id="g300"><g
                     id="g302"><g
                       clip-path="url(#clipPath308)"
                       id="g304"><path
                         id="path310"
                         style="fill:#ffa600;fill-opacity:1;fill-rule:nonzero;stroke:#ffa600;stroke-width:1;stroke-linecap:butt;stroke-linejoin:round;stroke-miterlimit:10;stroke-dasharray:none;stroke-opacity:1"
                         d="m 0,-3 c 0.795609,0 1.55874,0.316099 2.12132,0.87868 C 2.683901,-1.55874 3,-0.795609 3,0 3,0.795609 2.683901,1.55874 2.12132,2.12132 1.55874,2.683901 0.795609,3 0,3 -0.795609,3 -1.55874,2.683901 -2.12132,2.12132 -2.683901,1.55874 -3,0.795609 -3,0 -3,-0.795609 -2.683901,-1.55874 -2.12132,-2.12132 -1.55874,-2.683901 -0.795609,-3 0,-3 Z" /></g></g><g
                     transform="translate(134.05568,-11.296488)"
                     id="g312"><g
                       id="g314"><g
                         clip-path="url(#clipPath320)"
                         id="g316"><path
                           id="path322"
                           style="fill:#ffa600;fill-opacity:1;fill-rule:nonzero;stroke:#ffa600;stroke-width:1;stroke-linecap:butt;stroke-linejoin:round;stroke-miterlimit:10;stroke-dasharray:none;stroke-opacity:1"
                           d="m 0,-3 c 0.795609,0 1.55874,0.316099 2.12132,0.87868 C 2.683901,-1.55874 3,-0.795609 3,0 3,0.795609 2.683901,1.55874 2.12132,2.12132 1.55874,2.683901 0.795609,3 0,3 -0.795609,3 -1.55874,2.683901 -2.12132,2.12132 -2.683901,1.55874 -3,0.795609 -3,0 -3,-0.795609 -2.683901,-1.55874 -2.12132,-2.12132 -1.55874,-2.683901 -0.795609,-3 0,-3 Z" /></g></g></g></g></g></g></g></g></g></g><g
       id="g324"><g
         clip-path="url(#clipPath330)"
         id="g326"><path
           id="path332"
           style="fill:none;stroke:#003f5c;stroke-width:1.5;stroke-linecap:square;stroke-linejoin:round;stroke-miterlimit:10;stroke-dasharray:none;stroke-opacity:1"
           d="M 67.324602,179.00113 112.00983,123.49974 156.69506,92.843222 246.06551,67.229223 335.43597,61.805432 469.49165,59.24486" /><g
           transform="translate(67.324602,179.00113)"
           id="g334"><g
             id="g336"><g
               clip-path="url(#clipPath342)"
               id="g338"><path
                 id="path344"
                 style="fill:#003f5c;fill-opacity:1;fill-rule:nonzero;stroke:#003f5c;stroke-width:1;stroke-linecap:butt;stroke-linejoin:miter;stroke-miterlimit:10;stroke-dasharray:none;stroke-opacity:1"
                 d="M 0,3 -3,-3 H 3 Z" /></g></g><g
             transform="translate(44.685227,-55.501394)"
             id="g346"><g
               id="g348"><g
                 clip-path="url(#clipPath354)"
                 id="g350"><path
                   id="path356"
                   style="fill:#003f5c;fill-opacity:1;fill-rule:nonzero;stroke:#003f5c;stroke-width:1;stroke-linecap:butt;stroke-linejoin:miter;stroke-miterlimit:10;stroke-dasharray:none;stroke-opacity:1"
                   d="M 0,3 -3,-3 H 3 Z" /></g></g><g
               transform="translate(44.685227,-30.656519)"
               id="g358"><g
                 id="g360"><g
                   clip-path="url(#clipPath366)"
                   id="g362"><path
                     id="path368"
                     style="fill:#003f5c;fill-opacity:1;fill-rule:nonzero;stroke:#003f5c;stroke-width:1;stroke-linecap:butt;stroke-linejoin:miter;stroke-miterlimit:10;stroke-dasharray:none;stroke-opacity:1"
                     d="M 0,3 -3,-3 H 3 Z" /></g></g><g
                 transform="translate(89.370455,-25.613998)"
                 id="g370"><g
                   id="g372"><g
                     clip-path="url(#clipPath378)"
                     id="g374"><path
                       id="path380"
                       style="fill:#003f5c;fill-opacity:1;fill-rule:nonzero;stroke:#003f5c;stroke-width:1;stroke-linecap:butt;stroke-linejoin:miter;stroke-miterlimit:10;stroke-dasharray:none;stroke-opacity:1"
                       d="M 0,3 -3,-3 H 3 Z" /></g></g><g
                   transform="translate(89.370455,-5.4237918)"
                   id="g382"><g
                     id="g384"><g
                       clip-path="url(#clipPath390)"
                       id="g386"><path
                         id="path392"
                         style="fill:#003f5c;fill-opacity:1;fill-rule:nonzero;stroke:#003f5c;stroke-width:1;stroke-linecap:butt;stroke-linejoin:miter;stroke-miterlimit:10;stroke-dasharray:none;stroke-opacity:1"
                         d="M 0,3 -3,-3 H 3 Z" /></g></g><g
                     transform="translate(134.05568,-2.5605715)"
                     id="g394"><g
                       id="g396"><g
                         clip-path="url(#clipPath402)"
                         id="g398"><path
                           id="path404"
                           style="fill:#003f5c;fill-opacity:1;fill-rule:nonzero;stroke:#003f5c;stroke-width:1;stroke-linecap:butt;stroke-linejoin:miter;stroke-miterlimit:10;stroke-dasharray:none;stroke-opacity:1"
                           d="M 0,3 -3,-3 H 3 Z" /></g></g></g></g></g></g></g></g></g></g><g
       id="g406"><path
         id="path408"
         style="fill:none;stroke:#000000;stroke-width:0.80000001;stroke-linecap:square;stroke-linejoin:miter;stroke-miterlimit:10;stroke-dasharray:none;stroke-opacity:1"
         d="M 47.21625,35.911353 V 248.49782" /><path
         id="path410"
         style="fill:none;stroke:#000000;stroke-width:0.80000001;stroke-linecap:square;stroke-linejoin:miter;stroke-miterlimit:10;stroke-dasharray:none;stroke-opacity:1"
         d="M 47.21625,35.911353 H 489.6" /><text
         id="text414"
         style="font-variant:normal;font-weight:normal;font-size:11.95516777px;font-family:CMSS12;-inkscape-font-specification:CMSS12;writing-mode:lr-tb;fill:#000000;fill-opacity:1;fill-rule:nonzero;stroke:none"
         transform="matrix(1,0,0,-1,212.57444,254.49782)"><tspan
           id="tspan412"
           y="0"
           x="0 6.4916563 12.493151 18.819811 24.020309 27.989426 33.333385 36.083073 40.566261 45.766762 55.67025 61.346577 65.315689 70.51619 74.413574 78.633751 82.602867 88.197884 90.947571 96.949066 99.698753 105.70025">Supervisedpre-training</tspan></text>
<path
         id="path416"
         style="fill:none;stroke:#808080;stroke-width:1.5;stroke-linecap:butt;stroke-linejoin:round;stroke-miterlimit:10;stroke-dasharray:1.5, 2.475;stroke-dashoffset:0;stroke-opacity:1"
         d="m 136.35837,278.67718 h 20" /><text
         id="text420"
         style="font-variant:normal;font-weight:normal;font-size:9.96263981px;font-family:CMSS10;-inkscape-font-specification:CMSS10;writing-mode:lr-tb;fill:#000000;fill-opacity:1;fill-rule:nonzero;stroke:none"
         transform="matrix(1,0,0,-1,164.35837,275.17718)"><tspan
           id="tspan418"
           y="0"
           x="0 2.7596514 7.9003735 10.271482 13.867995 16.239103 21.02117 23.392279 25.763388 30.087173 34.86924 38.465752 40.836861 45.81818">Initialization</tspan></text>
<path
         id="path422"
         style="fill:none;stroke:#ffa600;stroke-width:1.5;stroke-linecap:butt;stroke-linejoin:round;stroke-miterlimit:10;stroke-dasharray:5.55, 2.4;stroke-dashoffset:0;stroke-opacity:1"
         d="m 235.40314,278.67718 h 20" /><path
         id="path424"
         style="fill:#ffa600;fill-opacity:1;fill-rule:nonzero;stroke:#ffa600;stroke-width:1;stroke-linecap:butt;stroke-linejoin:round;stroke-miterlimit:10;stroke-dasharray:none;stroke-opacity:1"
         d="m 245.40314,275.67718 c 0.79561,0 1.55874,0.3161 2.12132,0.87868 0.56258,0.56258 0.87868,1.32571 0.87868,2.12132 0,0.79561 -0.3161,1.55874 -0.87868,2.12132 -0.56258,0.56258 -1.32571,0.87868 -2.12132,0.87868 -0.79561,0 -1.55874,-0.3161 -2.12132,-0.87868 -0.56258,-0.56258 -0.87868,-1.32571 -0.87868,-2.12132 0,-0.79561 0.3161,-1.55874 0.87868,-2.12132 0.56258,-0.56258 1.32571,-0.87868 2.12132,-0.87868 z" /><text
         id="text428"
         style="font-variant:normal;font-weight:normal;font-size:9.96263981px;font-family:CMSS10;-inkscape-font-specification:CMSS10;writing-mode:lr-tb;fill:#000000;fill-opacity:1;fill-rule:nonzero;stroke:none"
         transform="matrix(1,0,0,-1,263.40314,275.17718)"><tspan
           id="tspan426"
           y="0"
           x="0 5.5292654 12.164384">SGD</tspan></text>
<path
         id="path430"
         style="fill:none;stroke:#003f5c;stroke-width:1.5;stroke-linecap:square;stroke-linejoin:round;stroke-miterlimit:10;stroke-dasharray:none;stroke-opacity:1"
         d="m 302.77502,278.67718 h 20" /><path
         id="path432"
         style="fill:#003f5c;fill-opacity:1;fill-rule:nonzero;stroke:#003f5c;stroke-width:1;stroke-linecap:butt;stroke-linejoin:miter;stroke-miterlimit:10;stroke-dasharray:none;stroke-opacity:1"
         d="m 312.77502,281.67718 -3,-6 h 6 z" /><text
         id="text436"
         style="font-variant:normal;font-weight:normal;font-size:9.96263981px;font-family:CMSS10;-inkscape-font-specification:CMSS10;writing-mode:lr-tb;fill:#000000;fill-opacity:1;fill-rule:nonzero;stroke:none"
         transform="matrix(1,0,0,-1,330.77502,275.17718)"><tspan
           id="tspan434"
           y="0"
           x="0 5.5292654 10.669988 15.81071 22.445827">SubGD</tspan></text>
</g></g></svg>