<?xml version="1.0" encoding="UTF-8" standalone="no"?>
<svg
   xmlns:dc="http://purl.org/dc/elements/1.1/"
   xmlns:cc="http://creativecommons.org/ns#"
   xmlns:rdf="http://www.w3.org/1999/02/22-rdf-syntax-ns#"
   xmlns:svg="http://www.w3.org/2000/svg"
   xmlns="http://www.w3.org/2000/svg"
   viewBox="0 0 586.3996 377.44305"
   height="377.44305"
   width="586.3996"
   xml:space="preserve"
   id="svg2"
   version="1.1"><metadata
     id="metadata8"><rdf:RDF><cc:Work
         rdf:about=""><dc:format>image/svg+xml</dc:format><dc:type
           rdf:resource="http://purl.org/dc/dcmitype/StillImage" /></cc:Work></rdf:RDF></metadata><defs
     id="defs6"><clipPath
       id="clipPath20"
       clipPathUnits="userSpaceOnUse"><path
         id="path18"
         d="M 41.999682,35.911353 H 432.59968 V 253.35135 H 41.999682 Z" /></clipPath><clipPath
       id="clipPath38"
       clipPathUnits="userSpaceOnUse"><path
         id="path36"
         d="M 41.999682,35.911353 H 432.59968 V 253.35135 H 41.999682 Z" /></clipPath><clipPath
       id="clipPath56"
       clipPathUnits="userSpaceOnUse"><path
         id="path54"
         d="M 41.999682,35.911353 H 432.59968 V 253.35135 H 41.999682 Z" /></clipPath><clipPath
       id="clipPath74"
       clipPathUnits="userSpaceOnUse"><path
         id="path72"
         d="M 41.999682,35.911353 H 432.59968 V 253.35135 H 41.999682 Z" /></clipPath><clipPath
       id="clipPath92"
       clipPathUnits="userSpaceOnUse"><path
         id="path90"
         d="M 41.999682,35.911353 H 432.59968 V 253.35135 H 41.999682 Z" /></clipPath><clipPath
       id="clipPath110"
       clipPathUnits="userSpaceOnUse"><path
         id="path108"
         d="M 41.999682,35.911353 H 432.59968 V 253.35135 H 41.999682 Z" /></clipPath><clipPath
       id="clipPath132"
       clipPathUnits="userSpaceOnUse"><path
         id="path130"
         d="M 41.999682,35.911353 H 432.59968 V 253.35135 H 41.999682 Z" /></clipPath><clipPath
       id="clipPath150"
       clipPathUnits="userSpaceOnUse"><path
         id="path148"
         d="M 41.999682,35.911353 H 432.59968 V 253.35135 H 41.999682 Z" /></clipPath><clipPath
       id="clipPath168"
       clipPathUnits="userSpaceOnUse"><path
         id="path166"
         d="M 41.999682,35.911353 H 432.59968 V 253.35135 H 41.999682 Z" /></clipPath><clipPath
       id="clipPath186"
       clipPathUnits="userSpaceOnUse"><path
         id="path184"
         d="M 41.999682,35.911353 H 432.59968 V 253.35135 H 41.999682 Z" /></clipPath><clipPath
       id="clipPath204"
       clipPathUnits="userSpaceOnUse"><path
         id="path202"
         d="M 41.999682,35.911353 H 432.59968 V 253.35135 H 41.999682 Z" /></clipPath><clipPath
       id="clipPath222"
       clipPathUnits="userSpaceOnUse"><path
         id="path220"
         d="M 41.999682,35.911353 H 432.59968 V 253.35135 H 41.999682 Z" /></clipPath><clipPath
       id="clipPath244"
       clipPathUnits="userSpaceOnUse"><path
         id="path242"
         d="M 41.999682,35.911353 H 432.59968 V 253.35135 H 41.999682 Z" /></clipPath><clipPath
       id="clipPath254"
       clipPathUnits="userSpaceOnUse"><path
         id="path252"
         d="M 41.999682,35.911353 H 432.59968 V 253.35135 H 41.999682 Z" /></clipPath></defs><g
     transform="matrix(1.3333333,0,0,-1.3333333,0,377.44304)"
     id="g10"><path
       id="path12"
       style="fill:#ffffff;fill-opacity:1;fill-rule:nonzero;stroke:none"
       d="M 41.999682,35.911353 H 432.59968 V 253.35135 H 41.999682 Z" /><g
       id="g14"><g
         clip-path="url(#clipPath20)"
         id="g16"><path
           id="path22"
           style="fill:none;stroke:#b0b0b0;stroke-width:0.80000001;stroke-linecap:square;stroke-linejoin:round;stroke-miterlimit:10;stroke-dasharray:none;stroke-opacity:0.4"
           d="M 59.059334,35.911353 V 253.35135" /></g></g><g
       id="g24"><path
         id="path26"
         style="fill:#000000;fill-opacity:1;fill-rule:nonzero;stroke:#000000;stroke-width:0.80000001;stroke-linecap:butt;stroke-linejoin:round;stroke-miterlimit:10;stroke-dasharray:none;stroke-opacity:1"
         d="m 59.059334,35.911353 v -3.5" /><text
         id="text30"
         style="font-variant:normal;font-weight:normal;font-size:9.96263981px;font-family:CMR10;-inkscape-font-specification:CMR10;writing-mode:lr-tb;fill:#000000;fill-opacity:1;fill-rule:nonzero;stroke:none"
         transform="matrix(1,0,0,-1,56.568666,21.992855)"><tspan
           id="tspan28"
           y="0"
           x="0">0</tspan></text>
</g><g
       id="g32"><g
         clip-path="url(#clipPath38)"
         id="g34"><path
           id="path40"
           style="fill:none;stroke:#b0b0b0;stroke-width:0.80000001;stroke-linecap:square;stroke-linejoin:round;stroke-miterlimit:10;stroke-dasharray:none;stroke-opacity:0.4"
           d="M 128.54875,35.911353 V 253.35135" /></g></g><g
       id="g42"><path
         id="path44"
         style="fill:#000000;fill-opacity:1;fill-rule:nonzero;stroke:#000000;stroke-width:0.80000001;stroke-linecap:butt;stroke-linejoin:round;stroke-miterlimit:10;stroke-dasharray:none;stroke-opacity:1"
         d="m 128.54875,35.911353 v -3.5" /><text
         id="text48"
         style="font-variant:normal;font-weight:normal;font-size:9.96263981px;font-family:CMR10;-inkscape-font-specification:CMR10;writing-mode:lr-tb;fill:#000000;fill-opacity:1;fill-rule:nonzero;stroke:none"
         transform="matrix(1,0,0,-1,121.07675,21.992855)"><tspan
           id="tspan46"
           y="0"
           x="0 4.9813199 9.9626398">100</tspan></text>
</g><g
       id="g50"><g
         clip-path="url(#clipPath56)"
         id="g52"><path
           id="path58"
           style="fill:none;stroke:#b0b0b0;stroke-width:0.80000001;stroke-linecap:square;stroke-linejoin:round;stroke-miterlimit:10;stroke-dasharray:none;stroke-opacity:0.4"
           d="M 198.03816,35.911353 V 253.35135" /></g></g><g
       id="g60"><path
         id="path62"
         style="fill:#000000;fill-opacity:1;fill-rule:nonzero;stroke:#000000;stroke-width:0.80000001;stroke-linecap:butt;stroke-linejoin:round;stroke-miterlimit:10;stroke-dasharray:none;stroke-opacity:1"
         d="m 198.03816,35.911353 v -3.5" /><text
         id="text66"
         style="font-variant:normal;font-weight:normal;font-size:9.96263981px;font-family:CMR10;-inkscape-font-specification:CMR10;writing-mode:lr-tb;fill:#000000;fill-opacity:1;fill-rule:nonzero;stroke:none"
         transform="matrix(1,0,0,-1,190.56616,21.992855)"><tspan
           id="tspan64"
           y="0"
           x="0 4.9813199 9.9626398">200</tspan></text>
</g><g
       id="g68"><g
         clip-path="url(#clipPath74)"
         id="g70"><path
           id="path76"
           style="fill:none;stroke:#b0b0b0;stroke-width:0.80000001;stroke-linecap:square;stroke-linejoin:round;stroke-miterlimit:10;stroke-dasharray:none;stroke-opacity:0.4"
           d="M 267.52758,35.911353 V 253.35135" /></g></g><g
       id="g78"><path
         id="path80"
         style="fill:#000000;fill-opacity:1;fill-rule:nonzero;stroke:#000000;stroke-width:0.80000001;stroke-linecap:butt;stroke-linejoin:round;stroke-miterlimit:10;stroke-dasharray:none;stroke-opacity:1"
         d="m 267.52758,35.911353 v -3.5" /><text
         id="text84"
         style="font-variant:normal;font-weight:normal;font-size:9.96263981px;font-family:CMR10;-inkscape-font-specification:CMR10;writing-mode:lr-tb;fill:#000000;fill-opacity:1;fill-rule:nonzero;stroke:none"
         transform="matrix(1,0,0,-1,260.05557,21.992855)"><tspan
           id="tspan82"
           y="0"
           x="0 4.9813199 9.9626398">300</tspan></text>
</g><g
       id="g86"><g
         clip-path="url(#clipPath92)"
         id="g88"><path
           id="path94"
           style="fill:none;stroke:#b0b0b0;stroke-width:0.80000001;stroke-linecap:square;stroke-linejoin:round;stroke-miterlimit:10;stroke-dasharray:none;stroke-opacity:0.4"
           d="M 337.01699,35.911353 V 253.35135" /></g></g><g
       id="g96"><path
         id="path98"
         style="fill:#000000;fill-opacity:1;fill-rule:nonzero;stroke:#000000;stroke-width:0.80000001;stroke-linecap:butt;stroke-linejoin:round;stroke-miterlimit:10;stroke-dasharray:none;stroke-opacity:1"
         d="m 337.01699,35.911353 v -3.5" /><text
         id="text102"
         style="font-variant:normal;font-weight:normal;font-size:9.96263981px;font-family:CMR10;-inkscape-font-specification:CMR10;writing-mode:lr-tb;fill:#000000;fill-opacity:1;fill-rule:nonzero;stroke:none"
         transform="matrix(1,0,0,-1,329.54499,21.992855)"><tspan
           id="tspan100"
           y="0"
           x="0 4.9813199 9.9626398">400</tspan></text>
</g><g
       id="g104"><g
         clip-path="url(#clipPath110)"
         id="g106"><path
           id="path112"
           style="fill:none;stroke:#b0b0b0;stroke-width:0.80000001;stroke-linecap:square;stroke-linejoin:round;stroke-miterlimit:10;stroke-dasharray:none;stroke-opacity:0.4"
           d="M 406.50641,35.911353 V 253.35135" /></g></g><g
       id="g114"><path
         id="path116"
         style="fill:#000000;fill-opacity:1;fill-rule:nonzero;stroke:#000000;stroke-width:0.80000001;stroke-linecap:butt;stroke-linejoin:round;stroke-miterlimit:10;stroke-dasharray:none;stroke-opacity:1"
         d="m 406.50641,35.911353 v -3.5" /><text
         id="text120"
         style="font-variant:normal;font-weight:normal;font-size:9.96263981px;font-family:CMR10;-inkscape-font-specification:CMR10;writing-mode:lr-tb;fill:#000000;fill-opacity:1;fill-rule:nonzero;stroke:none"
         transform="matrix(1,0,0,-1,399.0344,21.992855)"><tspan
           id="tspan118"
           y="0"
           x="0 4.9813199 9.9626398">500</tspan></text>
<text
         id="text124"
         style="font-variant:normal;font-weight:normal;font-size:9.96263981px;font-family:CMSS10;-inkscape-font-specification:CMSS10;writing-mode:lr-tb;fill:#000000;fill-opacity:1;fill-rule:nonzero;stroke:none"
         transform="matrix(1,0,0,-1,198.79123,9.1371783)"><tspan
           id="tspan122"
           y="0"
           x="0 7.0535493 12.194271 20.104609 25.522078 29.94549 36.663628 41.644947 48.004425 52.597202 57.020615 61.444027 65.040543 69.74511 73.142372">Numberofvectors</tspan></text>
</g><g
       id="g126"><g
         clip-path="url(#clipPath132)"
         id="g128"><path
           id="path134"
           style="fill:none;stroke:#b0b0b0;stroke-width:0.80000001;stroke-linecap:square;stroke-linejoin:round;stroke-miterlimit:10;stroke-dasharray:none;stroke-opacity:0.4"
           d="M 41.999682,45.0735 H 432.59968" /></g></g><g
       id="g136"><path
         id="path138"
         style="fill:#000000;fill-opacity:1;fill-rule:nonzero;stroke:#000000;stroke-width:0.80000001;stroke-linecap:butt;stroke-linejoin:round;stroke-miterlimit:10;stroke-dasharray:none;stroke-opacity:1"
         d="m 41.999682,45.0735 h -3.5" /><text
         id="text142"
         style="font-variant:normal;font-weight:normal;font-size:9.96263981px;font-family:CMR10;-inkscape-font-specification:CMR10;writing-mode:lr-tb;fill:#000000;fill-opacity:1;fill-rule:nonzero;stroke:none"
         transform="matrix(1,0,0,-1,30.018347,41.614251)"><tspan
           id="tspan140"
           y="0"
           x="0">0</tspan></text>
</g><g
       id="g144"><g
         clip-path="url(#clipPath150)"
         id="g146"><path
           id="path152"
           style="fill:none;stroke:#b0b0b0;stroke-width:0.80000001;stroke-linecap:square;stroke-linejoin:round;stroke-miterlimit:10;stroke-dasharray:none;stroke-opacity:0.4"
           d="M 41.999682,81.147994 H 432.59968" /></g></g><g
       id="g154"><path
         id="path156"
         style="fill:#000000;fill-opacity:1;fill-rule:nonzero;stroke:#000000;stroke-width:0.80000001;stroke-linecap:butt;stroke-linejoin:round;stroke-miterlimit:10;stroke-dasharray:none;stroke-opacity:1"
         d="m 41.999682,81.147994 h -3.5" /><text
         id="text160"
         style="font-variant:normal;font-weight:normal;font-size:9.96263981px;font-family:CMR10;-inkscape-font-specification:CMR10;writing-mode:lr-tb;fill:#000000;fill-opacity:1;fill-rule:nonzero;stroke:none"
         transform="matrix(1,0,0,-1,25.037012,77.688745)"><tspan
           id="tspan158"
           y="0"
           x="0 4.9813199">50</tspan></text>
</g><g
       id="g162"><g
         clip-path="url(#clipPath168)"
         id="g164"><path
           id="path170"
           style="fill:none;stroke:#b0b0b0;stroke-width:0.80000001;stroke-linecap:square;stroke-linejoin:round;stroke-miterlimit:10;stroke-dasharray:none;stroke-opacity:0.4"
           d="M 41.999682,117.22249 H 432.59968" /></g></g><g
       id="g172"><path
         id="path174"
         style="fill:#000000;fill-opacity:1;fill-rule:nonzero;stroke:#000000;stroke-width:0.80000001;stroke-linecap:butt;stroke-linejoin:round;stroke-miterlimit:10;stroke-dasharray:none;stroke-opacity:1"
         d="m 41.999682,117.22249 h -3.5" /><text
         id="text178"
         style="font-variant:normal;font-weight:normal;font-size:9.96263981px;font-family:CMR10;-inkscape-font-specification:CMR10;writing-mode:lr-tb;fill:#000000;fill-opacity:1;fill-rule:nonzero;stroke:none"
         transform="matrix(1,0,0,-1,20.055677,113.76324)"><tspan
           id="tspan176"
           y="0"
           x="0 4.9813199 9.9626398">100</tspan></text>
</g><g
       id="g180"><g
         clip-path="url(#clipPath186)"
         id="g182"><path
           id="path188"
           style="fill:none;stroke:#b0b0b0;stroke-width:0.80000001;stroke-linecap:square;stroke-linejoin:round;stroke-miterlimit:10;stroke-dasharray:none;stroke-opacity:0.4"
           d="M 41.999682,153.29698 H 432.59968" /></g></g><g
       id="g190"><path
         id="path192"
         style="fill:#000000;fill-opacity:1;fill-rule:nonzero;stroke:#000000;stroke-width:0.80000001;stroke-linecap:butt;stroke-linejoin:round;stroke-miterlimit:10;stroke-dasharray:none;stroke-opacity:1"
         d="m 41.999682,153.29698 h -3.5" /><text
         id="text196"
         style="font-variant:normal;font-weight:normal;font-size:9.96263981px;font-family:CMR10;-inkscape-font-specification:CMR10;writing-mode:lr-tb;fill:#000000;fill-opacity:1;fill-rule:nonzero;stroke:none"
         transform="matrix(1,0,0,-1,20.055677,149.83773)"><tspan
           id="tspan194"
           y="0"
           x="0 4.9813199 9.9626398">150</tspan></text>
</g><g
       id="g198"><g
         clip-path="url(#clipPath204)"
         id="g200"><path
           id="path206"
           style="fill:none;stroke:#b0b0b0;stroke-width:0.80000001;stroke-linecap:square;stroke-linejoin:round;stroke-miterlimit:10;stroke-dasharray:none;stroke-opacity:0.4"
           d="M 41.999682,189.37148 H 432.59968" /></g></g><g
       id="g208"><path
         id="path210"
         style="fill:#000000;fill-opacity:1;fill-rule:nonzero;stroke:#000000;stroke-width:0.80000001;stroke-linecap:butt;stroke-linejoin:round;stroke-miterlimit:10;stroke-dasharray:none;stroke-opacity:1"
         d="m 41.999682,189.37148 h -3.5" /><text
         id="text214"
         style="font-variant:normal;font-weight:normal;font-size:9.96263981px;font-family:CMR10;-inkscape-font-specification:CMR10;writing-mode:lr-tb;fill:#000000;fill-opacity:1;fill-rule:nonzero;stroke:none"
         transform="matrix(1,0,0,-1,20.055677,185.91223)"><tspan
           id="tspan212"
           y="0"
           x="0 4.9813199 9.9626398">200</tspan></text>
</g><g
       id="g216"><g
         clip-path="url(#clipPath222)"
         id="g218"><path
           id="path224"
           style="fill:none;stroke:#b0b0b0;stroke-width:0.80000001;stroke-linecap:square;stroke-linejoin:round;stroke-miterlimit:10;stroke-dasharray:none;stroke-opacity:0.4"
           d="M 41.999682,225.44597 H 432.59968" /></g></g><g
       id="g226"><path
         id="path228"
         style="fill:#000000;fill-opacity:1;fill-rule:nonzero;stroke:#000000;stroke-width:0.80000001;stroke-linecap:butt;stroke-linejoin:round;stroke-miterlimit:10;stroke-dasharray:none;stroke-opacity:1"
         d="m 41.999682,225.44597 h -3.5" /><text
         id="text232"
         style="font-variant:normal;font-weight:normal;font-size:9.96263981px;font-family:CMR10;-inkscape-font-specification:CMR10;writing-mode:lr-tb;fill:#000000;fill-opacity:1;fill-rule:nonzero;stroke:none"
         transform="matrix(1,0,0,-1,20.055677,221.98672)"><tspan
           id="tspan230"
           y="0"
           x="0 4.9813199 9.9626398">250</tspan></text>
<text
         id="text236"
         style="font-variant:normal;font-weight:normal;font-size:9.96263981px;font-family:CMSS10;-inkscape-font-specification:CMSS10;writing-mode:lr-tb;fill:#000000;fill-opacity:1;fill-rule:nonzero;stroke:none"
         transform="matrix(0,1,1,0,14.118498,116.05789)"><tspan
           id="tspan234"
           y="0"
           x="0 5.9476962 11.755916 16.179327 20.602739 24.199253 26.570362 31.163137 38.907425 42.304688 47.086754 52.227474">Efectiverank</tspan></text>
</g><g
       id="g238"><g
         clip-path="url(#clipPath244)"
         id="g240"><path
           id="path246"
           style="fill:none;stroke:#003f5c;stroke-width:1.5;stroke-linecap:square;stroke-linejoin:round;stroke-miterlimit:10;stroke-dasharray:none;stroke-opacity:1"
           d="m 59.754228,45.79499 0.694894,0.721372 1.389788,0.475485 2.779577,0.913938 3.474471,0.190296 0.694894,0.326092 1.389788,0.02216 0.694894,0.253778 1.389789,-7.01e-4 0.694894,0.101786 0.694894,0.292464 1.389788,0.255769 2.084683,0.589177 0.694894,-0.02143 0.694894,0.318225 1.389788,0.0549 1.389788,0.136308 1.389789,0.01576 2.084682,0.268291 2.084683,-0.0039 1.389788,0.249419 4.864259,0.103427 0.694894,0.268516 0.694894,-0.023 1.389789,0.206901 2.779576,-0.0035 2.77958,-0.01975 2.08468,0.03393 2.08468,0.05186 3.47447,0.04981 0.6949,0.122015 2.08468,0.02371 0.69489,0.132382 11.8132,0.267702 1.38979,0.06556 3.47447,0.0156 1.38979,0.06331 1.38979,0.06966 3.47447,0.159626 4.86426,0.09332 0.69489,0.165967 6.25405,-0.04558 2.08468,0.199992 4.16937,0.02069 3.47447,0.02261 0.69489,0.164357 4.16937,0.06833 1.38979,0.160219 3.47447,0.03796 1.38978,0.08828 9.72852,-0.09466 1.38979,0.03521 6.94894,0.02657 0.6949,0.129531 6.94894,-0.02663 1.38979,0.10221 9.03362,-0.0059 2.08468,0.01189 8.33873,-0.0076 2.77958,0.07982 6.25405,0.01923 5.55915,0.10545 11.8132,0.0052 32.66002,0.322784 2.08469,0.09145 6.94894,0.05659 24.32129,0.08061 36.82939,0.0037 1.38979,0.04616 12.5081,-0.02728 2.08468,0.06202 12.50809,0.0028 27.10088,-0.02996 11.1183,0.03614 4.16937,-0.01227 v 0" /></g></g><g
       id="g248"><g
         clip-path="url(#clipPath254)"
         id="g250"><path
           id="path256"
           style="fill:none;stroke:#003f5c;stroke-width:1.5;stroke-linecap:butt;stroke-linejoin:round;stroke-miterlimit:10;stroke-dasharray:5.55, 2.4;stroke-dashoffset:0;stroke-opacity:0.8"
           d="m 59.754228,45.79499 15.287671,15.716662 22.931507,23.054744 0.694894,0.526759 1.38979,1.46554 20.15193,19.524405 0.69489,0.51252 2.08469,2.15006 4.86425,4.59837 0.6949,0.46527 0.69489,0.86796 1.38979,1.21217 2.77958,2.57364 0.69489,0.53721 0.6949,0.82265 1.38978,1.18075 2.77958,2.58961 0.69489,0.81249 1.38979,1.01372 0.6949,0.87228 0.69489,0.41463 0.6949,0.55603 1.38978,1.48538 1.38979,1.13967 4.86426,4.47974 0.69489,0.43865 2.08469,2.04043 1.38979,1.07148 0.69489,0.76334 0.69489,0.57152 0.6949,0.71688 1.38979,0.97002 0.69489,0.91484 0.69489,0.46996 0.6949,0.76177 0.69489,0.44096 0.6949,0.65326 0.69489,0.48529 0.6949,0.7891 5.55915,4.62385 0.69489,0.89919 2.77958,1.99895 0.69489,0.7488 0.6949,0.47352 0.69489,0.94209 2.77958,1.96193 0.69489,0.79347 0.6949,0.60425 0.69489,0.2494 0.69489,0.92862 0.6949,0.68597 0.69489,0.47392 0.6949,0.64405 0.69489,0.29034 0.6949,0.67303 0.69489,0.49237 0.69489,0.70418 0.6949,0.40278 0.69489,0.78375 0.6949,0.45925 0.69489,0.65047 0.69489,0.43863 0.6949,0.73991 0.69489,0.4543 2.77958,2.32824 0.69489,0.45009 0.6949,0.79635 0.69489,0.14659 0.6949,0.77812 0.69489,0.4905 0.69489,0.74761 0.6949,0.39175 0.69489,0.68046 0.6949,0.50597 0.69489,0.66962 0.6949,0.26533 0.69489,0.58668 0.69489,0.38025 1.38979,1.42381 0.6949,0.34104 2.08468,1.41181 1.38979,1.39882 0.69489,0.35183 0.69489,0.70506 1.38979,0.88766 0.6949,0.42297 0.69489,0.5968 0.6949,0.82255 1.38978,0.74239 0.6949,0.89125 2.77957,1.58719 1.38979,1.33763 0.6949,0.2932 2.08468,1.45298 0.69489,0.72029 1.38979,0.45404 0.6949,0.6739 0.69489,1.10597 0.69489,-0.14783 0.6949,0.47732 0.69489,0.78344 1.38979,0.83579 0.6949,0.65803 0.69489,0.12547 0.69489,0.80994 0.6949,0.0248 0.69489,0.7658 2.08468,1.62669 0.6949,0.50905 1.38979,0.64582 0.69489,0.52758 0.6949,0.89712 0.69489,-0.52076 0.69489,1.09447 0.6949,0.442 0.69489,0.25927 0.6949,0.75558 2.08468,0.83015 0.69489,0.96331 0.6949,0.50335 0.69489,-10e-4 0.69489,0.35796 0.6949,0.51528 0.69489,0.19879 0.6949,0.69627 0.69489,0.27419 0.6949,0.68608 0.69489,-0.37573 0.69489,1.12092 1.38979,0.82349 0.6949,0.065 0.69489,0.5361 0.69489,0.85491 0.6949,0.59779 0.69489,-0.0707 0.6949,0.12505 0.69489,0.40651 0.6949,1.05639 0.69489,-0.34383 0.69489,0.73158 0.6949,0.1218 0.69489,0.31475 0.6949,0.61112 1.38978,0.71888 0.6949,-0.19141 1.38979,1.4663 0.69489,0.005 0.6949,0.24615 0.69489,0.49417 2.77958,1.33513 0.69489,-0.0569 1.38979,0.8541 0.69489,-0.0146 0.6949,0.17821 0.69489,0.73288 0.69489,0.0623 0.6949,0.2858 0.69489,-0.13749 0.6949,0.9247 0.69489,-0.0927 0.6949,-0.23258 0.69489,0.58996 0.69489,0.27481 0.6949,0.13188 0.69489,0.40171 0.6949,-0.10823 0.69489,0.33432 0.69489,0.51446 0.6949,-0.29985 0.69489,0.25671 0.6949,0.62406 0.69489,-0.18199 0.6949,0.22105 0.69489,0.10153 0.69489,0.68715 1.38979,-0.32951 0.6949,0.17834 0.69489,0.41568 0.6949,0.2776 0.69489,-0.0704 0.69489,0.57393 1.38979,-0.42434 0.69489,0.60613 2.08469,0.62669 0.69489,0.0468 1.38979,0.60643 0.69489,-0.23657 0.6949,0.64109 0.69489,0.002 0.6949,0.29176 2.08468,0.31572 0.69489,-0.0586 0.6949,-0.30874 0.69489,0.50813 0.6949,0.16142 0.69489,0.46299 0.69489,-0.26056 0.6949,0.0243 0.69489,0.37748 1.38979,0.0911 0.69489,0.15584 0.6949,0.31876 0.69489,-0.0538 0.6949,0.22788 0.69489,-0.14265 0.6949,0.71715 0.69489,-0.21921 0.69489,-0.42271 0.6949,1.11276 0.69489,-0.50015 0.6949,0.25898 0.69489,-0.075 0.69489,0.0851 0.6949,0.43484 1.38979,0.17169 0.69489,0.1848 0.69489,-0.13103 0.6949,0.13949 0.69489,0.27952 1.38979,-0.32149 0.6949,0.47856 0.69489,0.19416 0.69489,0.49094 0.6949,-0.24469 0.69489,-0.0817 1.38979,0.53731 0.69489,0.087 0.6949,0.21357 0.69489,0.0232 0.6949,-0.11153 1.38979,0.30487 0.69489,-0.2112 0.69489,0.34995 1.38979,0.15142 0.6949,0.45358 0.69489,0.0797 1.38979,0.004 0.69489,0.30567 0.6949,-0.30678 1.38979,0.49013 0.69489,-0.45485 0.69489,0.58442 0.6949,0.092 1.38979,-0.2402 0.69489,0.27688 0.69489,-0.15463 0.6949,0.37932 1.38979,0.26413 0.69489,-0.0643 1.38979,0.45994 0.69489,-0.17342 1.38979,0.0164 0.6949,0.52016 1.38978,-0.18388 0.6949,0.35502 0.69489,0.1451 0.6949,-0.12473 0.69489,0.0549 0.69489,-0.17702 0.6949,0.37301 2.77958,-0.003 0.69489,-0.0971 1.38979,0.47106 0.69489,0.26386 0.6949,-0.16925 0.69489,0.14472 0.69489,-0.0727 1.38979,0.57626 1.38979,-0.23986 0.6949,-0.0267 1.38978,0.56908 0.6949,-0.33593 0.69489,0.14556 0.6949,-0.0166 0.69489,0.64429 0.69489,-0.36711 0.6949,-0.0707 1.38979,0.5645 0.69489,-0.31858 1.38979,0.12028 0.69489,-0.15414 0.6949,0.52042 0.69489,-0.0667 0.6949,0.21008 2.77957,0.0289 0.6949,0.28635 1.38979,0.003 2.77957,0.31216 0.6949,-0.0421 0.69489,0.1261 0.69489,-0.0806 0.6949,0.20404 0.69489,-0.25154 0.6949,0.45831 0.69489,-0.14001 0.69489,0.11383 0.6949,-0.0857 0.69489,0.13288 0.6949,0.26793 2.08468,-0.19356 0.69489,0.2546 0.6949,-0.15164 0.69489,0.32296 1.38979,-0.0465 0.69489,-0.1663 1.38979,0.37287 0.6949,0.039 1.38979,0.38014 0.69489,-0.35198 0.69489,0.27166 0.6949,-0.26072 0.69489,0.45454 0.6949,-0.007 0.69489,-0.20164 0.69489,0.22091 1.38979,0.12774 0.6949,0.17503 v 0" /></g></g><g
       id="g258"><path
         id="path260"
         style="fill:none;stroke:#000000;stroke-width:0.80000001;stroke-linecap:square;stroke-linejoin:miter;stroke-miterlimit:10;stroke-dasharray:none;stroke-opacity:1"
         d="M 41.999682,35.911353 V 253.35135" /><path
         id="path262"
         style="fill:none;stroke:#000000;stroke-width:0.80000001;stroke-linecap:square;stroke-linejoin:miter;stroke-miterlimit:10;stroke-dasharray:none;stroke-opacity:1"
         d="M 41.999682,35.911353 H 432.59968" /><path
         id="path264"
         style="fill:none;stroke:#003f5c;stroke-width:1.5;stroke-linecap:square;stroke-linejoin:round;stroke-miterlimit:10;stroke-dasharray:none;stroke-opacity:1"
         d="m 246.29968,267.78853 h 20" /><text
         id="text268"
         style="font-variant:normal;font-weight:normal;font-size:9.96263981px;font-family:CMSS10;-inkscape-font-specification:CMSS10;writing-mode:lr-tb;fill:#000000;fill-opacity:1;fill-rule:nonzero;stroke:none"
         transform="matrix(1,0,0,-1,274.29968,264.28853)"><tspan
           id="tspan266"
           y="0"
           x="0 9.127984 13.551396 15.922504 20.903824 26.044546 32.961933 38.102657 40.473766 46.281986 50.705399 54.102657 58.52607 63.66679 68.090202 72.513618">Weightdiferences</tspan></text>
<path
         id="path270"
         style="fill:none;stroke:#003f5c;stroke-width:1.5;stroke-linecap:butt;stroke-linejoin:round;stroke-miterlimit:10;stroke-dasharray:5.55, 2.4;stroke-dashoffset:0;stroke-opacity:0.8"
         d="m 129.06668,267.78853 h 20" /><text
         id="text274"
         style="font-variant:normal;font-weight:normal;font-size:9.96263981px;font-family:CMSS10;-inkscape-font-specification:CMSS10;writing-mode:lr-tb;fill:#000000;fill-opacity:1;fill-rule:nonzero;stroke:none"
         transform="matrix(1,0,0,-1,157.06668,264.28853)"><tspan
           id="tspan272"
           y="0"
           x="0 6.6351185 11.417186 16.557907 20.373598 24.189291 26.560398 31.342466 39.804062 43.201324 47.983391 53.124111 58.264835 63.246155">Gaussianrandom</tspan></text>
</g></g></svg>