<?xml version="1.0" encoding="UTF-8" standalone="no"?>
<svg
   xmlns:dc="http://purl.org/dc/elements/1.1/"
   xmlns:cc="http://creativecommons.org/ns#"
   xmlns:rdf="http://www.w3.org/1999/02/22-rdf-syntax-ns#"
   xmlns:svg="http://www.w3.org/2000/svg"
   xmlns="http://www.w3.org/2000/svg"
   viewBox="0 0 362.35464 268.80002"
   height="268.80002"
   width="362.35464"
   xml:space="preserve"
   id="svg2"
   version="1.1"><metadata
     id="metadata8"><rdf:RDF><cc:Work
         rdf:about=""><dc:format>image/svg+xml</dc:format><dc:type
           rdf:resource="http://purl.org/dc/dcmitype/StillImage" /></cc:Work></rdf:RDF></metadata><defs
     id="defs6"><clipPath
       id="clipPath26"
       clipPathUnits="userSpaceOnUse"><path
         id="path24"
         d="M 0,0 H 272 V 202 H 0 Z" /></clipPath></defs><g
     transform="matrix(1.3333333,0,0,1.3333333,0,8.7200002e-6)"
     id="g10"><g
       id="g12"><path
         id="path14"
         style="fill:#191917;fill-opacity:1;fill-rule:nonzero;stroke:none"
         d="m 3.504,197.355 54.184,-54.183 0.402,0.398 -54.188,54.188 z m -2.309,2.707 2.852,-7.124 0.07,0.199 0.071,0.191 0.078,0.192 0.082,0.183 0.086,0.184 0.089,0.175 0.094,0.176 0.098,0.168 0.101,0.164 0.219,0.321 0.113,0.152 0.122,0.148 0.121,0.141 0.129,0.141 0.132,0.136 0.133,0.133 0.141,0.125 0.144,0.125 0.149,0.117 0.152,0.118 0.156,0.109 0.161,0.105 0.335,0.204 0.172,0.093 0.18,0.09 0.18,0.086 0.375,0.156 0.195,0.075 0.199,0.07 z" /><path
         id="path16"
         style="fill:#191917;fill-opacity:1;fill-rule:nonzero;stroke:none"
         d="M 266.941,143.656 H 57.887 v -0.57 h 209.054 z m 3.547,-0.285 -7.058,3.024 0.093,-0.188 0.086,-0.191 0.079,-0.188 0.074,-0.187 0.066,-0.192 0.063,-0.187 0.058,-0.192 0.051,-0.187 0.043,-0.188 0.039,-0.191 0.031,-0.188 0.028,-0.187 0.019,-0.191 0.016,-0.188 0.008,-0.191 0.004,-0.188 -0.004,-0.187 -0.008,-0.192 -0.016,-0.187 -0.019,-0.192 -0.028,-0.187 -0.031,-0.188 -0.039,-0.191 -0.043,-0.188 -0.051,-0.187 -0.058,-0.192 -0.063,-0.187 -0.066,-0.191 -0.074,-0.188 -0.079,-0.187 -0.086,-0.192 -0.093,-0.187 z" /><path
         id="path18"
         style="fill:#191917;fill-opacity:1;fill-rule:nonzero;stroke:none"
         d="M 58.172,5.184 V 143.371 H 57.605 V 5.184 Z M 57.887,1.641 60.914,8.695 60.723,8.602 60.535,8.52 60.344,8.438 60.156,8.363 59.969,8.297 59.777,8.234 59.59,8.18 59.402,8.129 59.211,8.082 59.023,8.047 58.832,8.012 58.645,7.984 58.457,7.965 58.266,7.949 58.078,7.941 57.887,7.938 57.699,7.941 57.512,7.949 57.32,7.965 57.133,7.984 56.945,8.012 56.754,8.047 56.566,8.082 56.375,8.129 56.188,8.18 56,8.234 55.809,8.297 55.621,8.363 55.43,8.438 55.055,8.602 54.863,8.695 Z" /><g
         id="g20"><g
           id="g22" /><g
           id="g36"><g
             style="opacity:0.5"
             id="g34"
             clip-path="url(#clipPath26)"><g
               id="g32"><g
                 id="g30"><path
                   id="path28"
                   style="fill:#5b9ebc;fill-opacity:1;fill-rule:nonzero;stroke:#000000;stroke-width:0.75;stroke-linecap:butt;stroke-linejoin:miter;stroke-miterlimit:4;stroke-dasharray:none;stroke-opacity:1"
                   d="M 15.371,73.672 81.91,200.062 256.312,128.031 189.773,1.641 Z" /></g></g></g></g></g><path
         id="path38"
         style="fill:#003f5c;fill-opacity:1;fill-rule:nonzero;stroke:none"
         d="m 107.602,184.477 -23.258,9.632 -0.219,-0.523 23.258,-9.633 z m 3.168,-1.622 -5.364,5.497 0.012,-0.211 0.008,-0.207 v -0.204 l -0.004,-0.203 -0.008,-0.203 -0.016,-0.195 -0.019,-0.199 -0.027,-0.192 -0.032,-0.191 -0.035,-0.192 -0.043,-0.187 -0.047,-0.184 -0.054,-0.183 -0.059,-0.18 -0.062,-0.176 -0.071,-0.175 -0.074,-0.176 -0.082,-0.172 -0.086,-0.168 -0.09,-0.168 -0.097,-0.164 -0.102,-0.16 -0.109,-0.16 -0.114,-0.157 -0.117,-0.156 -0.125,-0.152 -0.129,-0.153 -0.136,-0.148 -0.141,-0.148 -0.145,-0.141 -0.152,-0.145 -0.156,-0.136 z" /><path
         id="path40"
         style="fill:#003f5c;fill-opacity:1;fill-rule:nonzero;stroke:none"
         d="m 72.621,171.605 11.774,22.254 -0.5,0.266 -11.774,-22.254 z m -1.906,-3 5.973,4.825 -0.211,0.004 -0.207,0.015 -0.204,0.016 -0.203,0.023 -0.199,0.028 -0.195,0.035 -0.192,0.039 -0.191,0.043 -0.188,0.051 -0.187,0.054 -0.18,0.059 -0.179,0.066 -0.18,0.071 -0.172,0.074 -0.172,0.082 -0.168,0.086 -0.164,0.09 -0.164,0.093 -0.16,0.102 -0.313,0.219 -0.152,0.117 -0.297,0.25 -0.14,0.133 -0.282,0.281 -0.133,0.148 -0.132,0.157 -0.129,0.156 -0.129,0.164 -0.125,0.172 z" /><path
         id="path42"
         style="fill:#003f5c;fill-opacity:1;fill-rule:nonzero;stroke:none"
         d="m 84.172,68.707 6.519,18.723 -0.535,0.187 -6.519,-18.722 z m -0.215,-1.043 -0.617,0.797 0.797,-0.277 -1.125,4.605 -0.981,-0.242 1.125,-4.606 z m 0,0 -0.801,0.277 0.188,-0.753 z m 3.438,3.309 -0.313,0.394 -3.742,-2.906 0.617,-0.797 3.746,2.91 z" /><path
         id="path44"
         style="fill:#003f5c;fill-opacity:1;fill-rule:nonzero;stroke:none"
         d="m 154.703,42.629 1.43,19.012 -0.563,0.043 -1.433,-19.012 z m 0.059,-1.067 -0.801,0.614 0.844,-0.067 -2.274,4.161 -0.883,-0.481 2.27,-4.16 z m 0,0 -0.844,0.067 0.375,-0.684 z m 2.472,4.079 -0.402,0.308 -2.871,-3.773 0.801,-0.614 2.875,3.774 z" /><path
         id="path46"
         style="fill:#003f5c;fill-opacity:1;fill-rule:nonzero;stroke:none"
         d="m 149.551,104.086 -9.149,20.223 -0.515,-0.235 9.148,-20.222 z m 0.562,-0.906 -0.996,0.152 0.77,0.348 -3.989,2.562 -0.543,-0.851 3.989,-2.559 z m 0,0 -0.769,-0.348 0.652,-0.422 z m 0.215,4.761 -0.5,0.079 -0.711,-4.688 0.996,-0.152 0.711,4.687 z" /><path
         id="path48"
         style="fill:#003f5c;fill-opacity:1;fill-rule:nonzero;stroke:none"
         d="m 161.039,112.773 -20.199,11.004 -0.27,-0.496 20.2,-11.008 z m 0.996,-0.382 -0.887,-0.481 0.407,0.742 -4.727,-0.363 0.074,-1.004 4.727,0.363 z m 0,0 -0.406,-0.743 0.777,0.059 z m -2.703,3.925 -0.441,-0.238 2.257,-4.168 0.887,0.481 -2.258,4.168 z" /><path
         id="path50"
         style="fill:#003f5c;fill-opacity:1;fill-rule:nonzero;stroke:none"
         d="m 154.789,84.242 -4.758,19.36 -0.551,-0.137 4.758,-19.356 z m 0.387,-0.992 -0.953,0.332 0.824,0.199 -3.453,3.25 -0.692,-0.734 3.453,-3.25 z m 0,0 -0.821,-0.203 0.567,-0.531 z m 1.082,4.645 -0.477,0.164 -1.558,-4.477 0.953,-0.332 1.558,4.48 z" /><path
         id="path52"
         style="fill:#003f5c;fill-opacity:1;fill-rule:nonzero;stroke:none"
         d="m 222.012,109.902 -17.828,-3.91 0.121,-0.554 17.828,3.91 z m 1.004,0.364 -0.356,-0.946 -0.183,0.828 -3.332,-3.371 0.718,-0.707 3.332,3.368 z m 0,0 0.179,-0.828 0.547,0.554 z m -4.618,1.195 -0.175,-0.469 4.437,-1.672 0.356,0.946 -4.442,1.668 z" /><path
         id="path54"
         style="fill:#003f5c;fill-opacity:1;fill-rule:nonzero;stroke:none"
         d="m 181.973,106.371 -20.11,5.668 -0.152,-0.547 20.109,-5.664 z m 1.054,-0.152 -0.757,-0.664 0.23,0.812 -4.527,-1.402 0.297,-0.961 4.527,1.402 z m 0,0 -0.23,-0.813 0.742,0.231 z m -3.507,3.23 -0.379,-0.332 3.129,-3.562 0.757,0.664 -3.129,3.562 z" /><path
         id="path56"
         style="fill:#003f5c;fill-opacity:1;fill-rule:nonzero;stroke:none"
         d="m 156.27,63.055 -1.102,19.797 -0.566,-0.032 1.105,-19.797 z m 0.199,-1.047 -0.875,0.504 0.844,0.047 -2.793,3.828 -0.817,-0.598 2.797,-3.828 z m 0,0 -0.844,-0.047 0.457,-0.625 z m 1.918,4.367 -0.438,0.25 -2.355,-4.113 0.875,-0.504 2.355,4.117 z" /><path
         id="path58"
         style="fill:#003f5c;fill-opacity:1;fill-rule:nonzero;stroke:none"
         d="m 203.199,105.711 -21.445,0.543 -0.012,-0.566 21.442,-0.543 z m 1.059,0.113 -0.57,-0.832 0.023,0.848 -4.043,-2.477 0.527,-0.859 4.043,2.476 z m 0,0 -0.02,-0.844 0.66,0.407 z m -4.196,2.266 -0.285,-0.418 3.911,-2.68 0.57,0.832 -3.91,2.68 z" /><path
         id="path60"
         style="fill:#003f5c;fill-opacity:1;fill-rule:nonzero;stroke:none"
         d="m 91.34,88.074 11.324,17.481 -0.476,0.308 -11.325,-17.48 z m -0.457,-0.961 -0.41,0.918 0.707,-0.461 v 4.742 H 90.172 V 87.57 Z m 0,0 -0.711,0.457 v -0.777 z m 4.121,2.395 -0.203,0.461 -4.328,-1.938 0.41,-0.918 4.328,1.934 z" /><path
         id="path62"
         style="fill:#003f5c;fill-opacity:1;fill-rule:nonzero;stroke:none"
         d="m 120.52,118.68 19.695,5.238 -0.145,0.547 -19.695,-5.238 z m -0.985,-0.407 0.313,0.957 0.214,-0.816 3.184,3.512 -0.746,0.679 -3.184,-3.515 z m 0,0 -0.219,0.817 -0.519,-0.574 z m 4.664,-0.992 0.156,0.477 -4.507,1.472 -0.313,-0.957 4.508,-1.472 z" /><path
         id="path64"
         style="fill:#003f5c;fill-opacity:1;fill-rule:nonzero;stroke:none"
         d="m 103.883,106.508 15.363,11.726 -0.348,0.45 -15.359,-11.723 z m -0.758,-0.75 -0.074,1.004 0.511,-0.672 1.598,4.465 -0.949,0.34 -1.598,-4.465 z m 0,0 -0.512,0.672 -0.261,-0.731 z m 4.691,0.863 -0.039,0.504 -4.726,-0.363 0.074,-1.004 4.73,0.363 z" /><path
         id="path66"
         style="fill:#003f5c;fill-opacity:1;fill-rule:nonzero;stroke:none"
         d="m 137.16,132.727 c 0.391,-1.485 1,-2.563 1.828,-3.204 0.625,-0.468 1.25,-0.64 1.875,-0.468 0.625,0.172 1.078,0.609 1.36,1.297 0.39,0.984 0.39,2.171 0.031,3.562 -0.375,1.344 -0.938,2.297 -1.75,2.922 -0.625,0.469 -1.266,0.625 -1.891,0.469 -0.343,-0.094 -0.64,-0.282 -0.875,-0.532 -0.234,-0.218 -0.422,-0.546 -0.562,-0.921 -0.125,-0.36 -0.203,-0.735 -0.235,-1.125 -0.031,-0.672 0.032,-1.313 0.219,-2 z m 4.078,0.656 c 0.266,-0.985 0.375,-1.797 0.344,-2.438 -0.031,-0.5 -0.125,-0.89 -0.312,-1.14 -0.157,-0.188 -0.329,-0.313 -0.563,-0.36 -0.25,-0.078 -0.516,-0.047 -0.781,0.11 -0.281,0.125 -0.516,0.406 -0.766,0.859 -0.234,0.422 -0.5,1.172 -0.828,2.188 z m -3.015,-0.406 c -0.157,0.671 -0.266,1.296 -0.328,1.875 -0.032,0.406 0,0.812 0.062,1.14 0.047,0.219 0.141,0.391 0.281,0.578 0.172,0.188 0.36,0.282 0.547,0.344 0.25,0.063 0.5,0.016 0.781,-0.156 0.266,-0.156 0.547,-0.485 0.782,-0.953 0.25,-0.469 0.5,-1.172 0.765,-2.063 z" /><path
         id="path68"
         style="fill:#003f5c;fill-opacity:1;fill-rule:nonzero;stroke:none"
         d="m 228.488,101.211 0.657,-3.781 c 0.015,-0.11 0.062,-0.203 0.14,-0.266 0.063,-0.078 0.156,-0.125 0.25,-0.125 0.235,0 0.344,0.094 0.344,0.297 0,0.094 -0.031,0.25 -0.109,0.469 l -1.079,3.406 z m 1.422,0 0.656,-3.781 c 0.032,-0.11 0.063,-0.203 0.141,-0.266 0.078,-0.078 0.156,-0.125 0.266,-0.125 0.218,0 0.328,0.094 0.328,0.297 0,0.094 -0.031,0.25 -0.11,0.469 l -1.078,3.406 z" /><path
         id="path70"
         style="fill:#003f5c;fill-opacity:1;fill-rule:nonzero;stroke:none"
         d="m 87.637,58.672 0.656,-3.781 c 0.016,-0.11 0.062,-0.203 0.141,-0.266 0.062,-0.078 0.156,-0.125 0.25,-0.125 0.234,0 0.343,0.094 0.343,0.297 0,0.094 -0.031,0.25 -0.109,0.469 l -1.078,3.406 z" /><path
         id="path72"
         style="fill:#003f5c;fill-opacity:1;fill-rule:nonzero;stroke:none"
         d="m 152.305,31.332 c 0.39,-1.484 1,-2.562 1.828,-3.203 0.625,-0.469 1.25,-0.641 1.875,-0.469 0.625,0.172 1.078,0.61 1.359,1.297 0.391,0.984 0.391,2.172 0.031,3.563 -0.375,1.343 -0.937,2.296 -1.75,2.921 -0.625,0.469 -1.265,0.625 -1.89,0.469 -0.344,-0.094 -0.641,-0.281 -0.875,-0.531 -0.235,-0.219 -0.422,-0.547 -0.563,-0.922 -0.125,-0.359 -0.203,-0.734 -0.234,-1.125 -0.031,-0.672 0.031,-1.312 0.219,-2 z m 4.078,0.656 c 0.265,-0.984 0.375,-1.797 0.344,-2.437 -0.032,-0.5 -0.125,-0.891 -0.313,-1.141 -0.156,-0.187 -0.328,-0.312 -0.562,-0.359 -0.25,-0.078 -0.516,-0.047 -0.782,0.109 -0.281,0.125 -0.515,0.406 -0.765,0.86 -0.235,0.421 -0.5,1.171 -0.828,2.187 z m -3.016,-0.406 c -0.156,0.672 -0.265,1.297 -0.328,1.875 -0.031,0.406 0,0.813 0.063,1.141 0.046,0.218 0.14,0.39 0.281,0.578 0.172,0.187 0.359,0.281 0.547,0.344 0.25,0.062 0.5,0.015 0.781,-0.157 0.266,-0.156 0.547,-0.484 0.781,-0.953 0.25,-0.469 0.5,-1.172 0.766,-2.062 z" /><path
         id="path74"
         style="fill:#003f5c;fill-opacity:1;fill-rule:nonzero;stroke:none"
         d="m 81.352,58.594 c 0.39,-1.485 1,-2.563 1.828,-3.203 0.625,-0.469 1.25,-0.641 1.875,-0.469 0.625,0.172 1.078,0.609 1.359,1.297 0.391,0.984 0.391,2.172 0.031,3.562 -0.375,1.344 -0.937,2.297 -1.75,2.922 -0.625,0.469 -1.265,0.625 -1.89,0.469 -0.344,-0.094 -0.641,-0.281 -0.875,-0.531 -0.235,-0.219 -0.422,-0.547 -0.563,-0.922 -0.125,-0.36 -0.203,-0.735 -0.234,-1.125 -0.031,-0.672 0.031,-1.313 0.219,-2 z m 4.078,0.656 c 0.265,-0.984 0.375,-1.797 0.343,-2.438 -0.031,-0.5 -0.125,-0.89 -0.312,-1.14 -0.156,-0.188 -0.328,-0.313 -0.563,-0.36 -0.25,-0.078 -0.515,-0.046 -0.781,0.11 -0.281,0.125 -0.515,0.406 -0.765,0.859 -0.235,0.422 -0.5,1.172 -0.829,2.188 z m -3.016,-0.406 c -0.156,0.672 -0.266,1.297 -0.328,1.875 -0.031,0.406 0,0.812 0.062,1.14 0.047,0.219 0.141,0.391 0.282,0.579 0.172,0.187 0.359,0.281 0.547,0.343 0.25,0.063 0.5,0.016 0.781,-0.156 0.265,-0.156 0.547,-0.484 0.781,-0.953 0.25,-0.469 0.5,-1.172 0.766,-2.063 z" /><path
         id="path76"
         style="fill:#003f5c;fill-opacity:1;fill-rule:nonzero;stroke:none"
         d="m 222.184,101.078 c 0.39,-1.484 1,-2.562 1.828,-3.203 0.625,-0.469 1.25,-0.641 1.875,-0.469 0.625,0.172 1.078,0.61 1.359,1.297 0.391,0.985 0.391,2.172 0.031,3.563 -0.375,1.343 -0.937,2.296 -1.75,2.922 -0.625,0.468 -1.265,0.624 -1.89,0.468 -0.344,-0.094 -0.641,-0.281 -0.875,-0.531 -0.235,-0.219 -0.422,-0.547 -0.563,-0.922 -0.125,-0.359 -0.203,-0.734 -0.234,-1.125 -0.031,-0.672 0.031,-1.312 0.219,-2 z m 4.078,0.656 c 0.265,-0.984 0.375,-1.796 0.343,-2.437 -0.031,-0.5 -0.125,-0.891 -0.312,-1.141 -0.156,-0.187 -0.328,-0.312 -0.563,-0.359 -0.25,-0.078 -0.515,-0.047 -0.781,0.109 -0.281,0.125 -0.515,0.406 -0.765,0.86 -0.235,0.422 -0.5,1.172 -0.829,2.187 z m -3.016,-0.406 c -0.156,0.672 -0.266,1.297 -0.328,1.875 -0.031,0.406 0,0.813 0.062,1.141 0.047,0.218 0.141,0.39 0.282,0.578 0.172,0.187 0.359,0.281 0.547,0.344 0.25,0.062 0.5,0.015 0.781,-0.157 0.265,-0.156 0.547,-0.484 0.781,-0.953 0.25,-0.468 0.5,-1.172 0.766,-2.062 z" /><path
         id="path78"
         style="fill:#003f5c;fill-opacity:1;fill-rule:nonzero;stroke:none"
         d="m 107.5,175.52 c -0.031,0.078 -0.078,0.109 -0.125,0.109 h -0.063 c -0.015,0 -0.062,-0.016 -0.078,-0.031 -0.031,-0.032 -0.031,-0.063 -0.031,-0.078 0.047,-0.36 0.141,-0.672 0.297,-0.954 0.156,-0.281 0.328,-0.5 0.562,-0.656 0.219,-0.172 0.469,-0.25 0.704,-0.25 0.312,0 0.546,0.078 0.734,0.266 0.172,0.187 0.266,0.406 0.266,0.719 0,0.125 -0.032,0.296 -0.094,0.484 -0.344,0.891 -0.547,1.484 -0.61,1.781 -0.093,0.328 -0.14,0.61 -0.14,0.86 0,0.234 0.031,0.421 0.109,0.578 0.063,0.14 0.172,0.265 0.297,0.343 0.141,0.079 0.297,0.125 0.469,0.125 0.312,0 0.609,-0.125 0.875,-0.375 0.281,-0.25 0.5,-0.593 0.719,-1.015 0.203,-0.438 0.375,-0.922 0.515,-1.453 0.032,-0.11 0.047,-0.25 0.047,-0.407 0,-0.421 -0.156,-0.765 -0.453,-1.031 -0.109,-0.094 -0.156,-0.203 -0.156,-0.312 0,-0.141 0.062,-0.266 0.203,-0.391 0.109,-0.125 0.25,-0.172 0.391,-0.172 0.093,0 0.187,0.031 0.281,0.094 0.156,0.141 0.25,0.375 0.25,0.734 0,0.203 -0.031,0.422 -0.078,0.688 -0.063,0.265 -0.125,0.547 -0.203,0.859 -0.094,0.406 -0.219,0.781 -0.376,1.156 -0.171,0.391 -0.328,0.704 -0.531,0.985 -0.203,0.281 -0.422,0.5 -0.672,0.656 -0.265,0.172 -0.515,0.25 -0.812,0.25 -0.656,0 -1.125,-0.203 -1.391,-0.594 -0.172,-0.25 -0.25,-0.547 -0.25,-0.875 0,-0.25 0.032,-0.5 0.11,-0.75 0.046,-0.203 0.125,-0.437 0.218,-0.703 0.078,-0.25 0.219,-0.625 0.407,-1.109 0.109,-0.313 0.156,-0.563 0.156,-0.75 0,-0.25 -0.094,-0.375 -0.281,-0.375 -0.282,0 -0.532,0.14 -0.75,0.453 -0.235,0.297 -0.407,0.672 -0.516,1.141 z" /><path
         id="path80"
         style="fill:#003f5c;fill-opacity:1;fill-rule:nonzero;stroke:none"
         d="m 116.336,181.125 -0.359,1.031 h -3.125 v -0.14 c 0.921,-0.844 1.562,-1.532 1.937,-2.063 0.375,-0.531 0.563,-1.015 0.563,-1.453 0,-0.328 -0.11,-0.609 -0.313,-0.828 -0.203,-0.219 -0.453,-0.328 -0.734,-0.328 -0.25,0 -0.5,0.078 -0.703,0.234 -0.204,0.141 -0.36,0.375 -0.454,0.656 h -0.156 c 0.078,-0.484 0.235,-0.843 0.516,-1.109 0.265,-0.25 0.609,-0.375 1,-0.375 0.437,0 0.797,0.141 1.078,0.422 0.297,0.266 0.437,0.594 0.437,0.969 0,0.265 -0.062,0.531 -0.187,0.812 -0.188,0.406 -0.516,0.859 -0.938,1.328 -0.656,0.703 -1.046,1.125 -1.203,1.281 h 1.375 c 0.266,0 0.469,-0.015 0.578,-0.031 0.125,-0.031 0.219,-0.078 0.313,-0.14 0.094,-0.063 0.172,-0.141 0.234,-0.266 z" /><path
         id="path82"
         style="fill:#003f5c;fill-opacity:1;fill-rule:nonzero;stroke:none"
         d="m 67.906,161.961 c -0.031,0.078 -0.078,0.109 -0.125,0.109 h -0.062 c -0.016,0 -0.063,-0.015 -0.078,-0.031 -0.032,-0.031 -0.032,-0.062 -0.032,-0.078 0.047,-0.359 0.141,-0.672 0.297,-0.953 0.156,-0.281 0.328,-0.5 0.563,-0.656 0.219,-0.172 0.469,-0.25 0.703,-0.25 0.312,0 0.547,0.078 0.734,0.265 0.172,0.188 0.266,0.406 0.266,0.719 0,0.125 -0.031,0.297 -0.094,0.484 -0.344,0.891 -0.547,1.485 -0.609,1.782 -0.094,0.328 -0.141,0.609 -0.141,0.859 0,0.234 0.031,0.422 0.11,0.578 0.062,0.141 0.171,0.266 0.296,0.344 0.141,0.078 0.297,0.125 0.469,0.125 0.313,0 0.609,-0.125 0.875,-0.375 0.281,-0.25 0.5,-0.594 0.719,-1.016 0.203,-0.437 0.375,-0.922 0.515,-1.453 0.032,-0.109 0.047,-0.25 0.047,-0.406 0,-0.422 -0.156,-0.766 -0.453,-1.031 -0.109,-0.094 -0.156,-0.204 -0.156,-0.313 0,-0.141 0.062,-0.266 0.203,-0.391 0.109,-0.125 0.25,-0.171 0.391,-0.171 0.094,0 0.187,0.031 0.281,0.093 0.156,0.141 0.25,0.375 0.25,0.735 0,0.203 -0.031,0.422 -0.078,0.687 -0.063,0.266 -0.125,0.547 -0.203,0.86 -0.094,0.406 -0.219,0.781 -0.375,1.156 -0.172,0.39 -0.328,0.703 -0.531,0.984 -0.204,0.281 -0.422,0.5 -0.672,0.656 -0.266,0.172 -0.516,0.25 -0.813,0.25 -0.656,0 -1.125,-0.203 -1.391,-0.593 -0.171,-0.25 -0.25,-0.547 -0.25,-0.875 0,-0.25 0.032,-0.5 0.11,-0.75 0.047,-0.203 0.125,-0.438 0.219,-0.703 0.078,-0.25 0.218,-0.625 0.406,-1.11 0.109,-0.312 0.156,-0.562 0.156,-0.75 0,-0.25 -0.094,-0.375 -0.281,-0.375 -0.281,0 -0.531,0.141 -0.75,0.453 -0.234,0.297 -0.406,0.672 -0.516,1.141 z" /><path
         id="path84"
         style="fill:#003f5c;fill-opacity:1;fill-rule:nonzero;stroke:none"
         d="m 74.004,163.816 1.297,-0.625 h 0.14 v 4.469 c 0,0.297 0.016,0.485 0.032,0.563 0.031,0.078 0.078,0.125 0.156,0.172 0.078,0.031 0.234,0.046 0.484,0.062 v 0.141 h -2 v -0.141 c 0.235,-0.016 0.407,-0.031 0.485,-0.062 0.062,-0.047 0.109,-0.094 0.14,-0.157 0.032,-0.062 0.047,-0.25 0.047,-0.578 v -2.859 c 0,-0.391 -0.015,-0.641 -0.047,-0.75 -0.015,-0.078 -0.047,-0.141 -0.093,-0.188 -0.047,-0.031 -0.11,-0.047 -0.172,-0.047 -0.094,0 -0.235,0.032 -0.407,0.125 z" /><g
         id="g86"><path
           id="path88"
           style="fill:#003f5c;fill-opacity:1;fill-rule:evenodd;stroke:#003f5c;stroke-width:0.56690001;stroke-linecap:butt;stroke-linejoin:miter;stroke-miterlimit:22.9255867;stroke-dasharray:none;stroke-opacity:1"
           d="m 140.145,122.066 c 1.171,0 2.125,0.95 2.125,2.125 0,1.172 -0.954,2.125 -2.125,2.125 -1.176,0 -2.125,-0.953 -2.125,-2.125 0,-1.175 0.949,-2.125 2.125,-2.125 z" /></g><g
         id="g90"><path
           id="path92"
           style="fill:#003f5c;fill-opacity:1;fill-rule:evenodd;stroke:#003f5c;stroke-width:0.56690001;stroke-linecap:butt;stroke-linejoin:miter;stroke-miterlimit:22.9255867;stroke-dasharray:none;stroke-opacity:1"
           d="m 83.449,65.371 c 1.176,0 2.129,0.953 2.129,2.125 0,1.176 -0.953,2.129 -2.129,2.129 -1.172,0 -2.125,-0.953 -2.125,-2.129 0,-1.172 0.953,-2.125 2.125,-2.125 z" /></g><g
         id="g94"><path
           id="path96"
           style="fill:#003f5c;fill-opacity:1;fill-rule:evenodd;stroke:#003f5c;stroke-width:0.56690001;stroke-linecap:butt;stroke-linejoin:miter;stroke-miterlimit:22.9255867;stroke-dasharray:none;stroke-opacity:1"
           d="m 154.316,38.441 c 1.176,0 2.125,0.954 2.125,2.129 0,1.172 -0.949,2.125 -2.125,2.125 -1.171,0 -2.125,-0.953 -2.125,-2.125 0,-1.175 0.954,-2.129 2.125,-2.129 z" /></g><g
         id="g98"><path
           id="path100"
           style="fill:#003f5c;fill-opacity:1;fill-rule:evenodd;stroke:#003f5c;stroke-width:0.56690001;stroke-linecap:butt;stroke-linejoin:miter;stroke-miterlimit:22.9255867;stroke-dasharray:none;stroke-opacity:1"
           d="m 223.828,107.914 c 1.176,0 2.129,0.949 2.129,2.125 0,1.172 -0.953,2.125 -2.129,2.125 -1.172,0 -2.125,-0.953 -2.125,-2.125 0,-1.176 0.953,-2.125 2.125,-2.125 z" /></g><path
         id="path102"
         style="fill:#003f5c;fill-opacity:1;fill-rule:nonzero;stroke:none"
         d="m 142.613,137.629 c 0,-0.594 0.094,-1.125 0.282,-1.563 0.187,-0.421 0.421,-0.75 0.718,-0.968 0.235,-0.172 0.485,-0.25 0.735,-0.25 0.406,0 0.765,0.203 1.093,0.609 0.407,0.531 0.61,1.219 0.61,2.094 0,0.609 -0.094,1.14 -0.266,1.562 -0.187,0.422 -0.406,0.735 -0.687,0.938 -0.266,0.187 -0.532,0.297 -0.797,0.297 -0.5,0 -0.922,-0.297 -1.25,-0.907 -0.281,-0.5 -0.438,-1.093 -0.438,-1.812 z m 0.782,0.094 c 0,0.734 0.078,1.328 0.265,1.781 0.141,0.391 0.375,0.594 0.656,0.594 0.141,0 0.282,-0.063 0.438,-0.203 0.156,-0.125 0.266,-0.329 0.344,-0.625 0.125,-0.454 0.172,-1.079 0.172,-1.891 0,-0.609 -0.063,-1.109 -0.172,-1.516 -0.11,-0.297 -0.219,-0.5 -0.375,-0.64 -0.11,-0.078 -0.235,-0.125 -0.375,-0.125 -0.188,0 -0.328,0.078 -0.485,0.25 -0.172,0.203 -0.312,0.547 -0.375,1.015 -0.062,0.453 -0.093,0.922 -0.093,1.36 z" /></g></g></svg>